<mxfile host="app.diagrams.net" agent="Mozilla/5.0 (Windows NT 10.0; Win64; x64) AppleWebKit/537.36 (KHTML, like Gecko) Chrome/128.0.0.0 Safari/537.36" version="24.7.14">
  <diagram id="C5RBs43oDa-KdzZeNtuy" name="Page-1">
    <mxGraphModel dx="2261" dy="2041" grid="1" gridSize="10" guides="1" tooltips="1" connect="1" arrows="1" fold="1" page="1" pageScale="1" pageWidth="827" pageHeight="1169" math="0" shadow="0">
      <root>
        <mxCell id="WIyWlLk6GJQsqaUBKTNV-0" />
        <mxCell id="WIyWlLk6GJQsqaUBKTNV-1" parent="WIyWlLk6GJQsqaUBKTNV-0" />
        <mxCell id="zkfFHV4jXpPFQw0GAbJ--0" value="Person" style="swimlane;fontStyle=2;align=center;verticalAlign=top;childLayout=stackLayout;horizontal=1;startSize=26;horizontalStack=0;resizeParent=1;resizeLast=0;collapsible=1;marginBottom=0;rounded=0;shadow=0;strokeWidth=1;" parent="WIyWlLk6GJQsqaUBKTNV-1" vertex="1">
          <mxGeometry x="220" y="100" width="160" height="138" as="geometry">
            <mxRectangle x="230" y="140" width="160" height="26" as="alternateBounds" />
          </mxGeometry>
        </mxCell>
        <mxCell id="zkfFHV4jXpPFQw0GAbJ--1" value="Name" style="text;align=left;verticalAlign=top;spacingLeft=4;spacingRight=4;overflow=hidden;rotatable=0;points=[[0,0.5],[1,0.5]];portConstraint=eastwest;" parent="zkfFHV4jXpPFQw0GAbJ--0" vertex="1">
          <mxGeometry y="26" width="160" height="26" as="geometry" />
        </mxCell>
        <mxCell id="zkfFHV4jXpPFQw0GAbJ--2" value="Phone Number" style="text;align=left;verticalAlign=top;spacingLeft=4;spacingRight=4;overflow=hidden;rotatable=0;points=[[0,0.5],[1,0.5]];portConstraint=eastwest;rounded=0;shadow=0;html=0;" parent="zkfFHV4jXpPFQw0GAbJ--0" vertex="1">
          <mxGeometry y="52" width="160" height="26" as="geometry" />
        </mxCell>
        <mxCell id="zkfFHV4jXpPFQw0GAbJ--3" value="Email Address" style="text;align=left;verticalAlign=top;spacingLeft=4;spacingRight=4;overflow=hidden;rotatable=0;points=[[0,0.5],[1,0.5]];portConstraint=eastwest;rounded=0;shadow=0;html=0;" parent="zkfFHV4jXpPFQw0GAbJ--0" vertex="1">
          <mxGeometry y="78" width="160" height="26" as="geometry" />
        </mxCell>
        <mxCell id="zkfFHV4jXpPFQw0GAbJ--4" value="" style="line;html=1;strokeWidth=1;align=left;verticalAlign=middle;spacingTop=-1;spacingLeft=3;spacingRight=3;rotatable=0;labelPosition=right;points=[];portConstraint=eastwest;" parent="zkfFHV4jXpPFQw0GAbJ--0" vertex="1">
          <mxGeometry y="104" width="160" height="8" as="geometry" />
        </mxCell>
        <mxCell id="zkfFHV4jXpPFQw0GAbJ--5" value="Purchase Parking Pass" style="text;align=left;verticalAlign=top;spacingLeft=4;spacingRight=4;overflow=hidden;rotatable=0;points=[[0,0.5],[1,0.5]];portConstraint=eastwest;" parent="zkfFHV4jXpPFQw0GAbJ--0" vertex="1">
          <mxGeometry y="112" width="160" height="26" as="geometry" />
        </mxCell>
        <mxCell id="zkfFHV4jXpPFQw0GAbJ--6" value="Student" style="swimlane;fontStyle=0;align=center;verticalAlign=top;childLayout=stackLayout;horizontal=1;startSize=26;horizontalStack=0;resizeParent=1;resizeLast=0;collapsible=1;marginBottom=0;rounded=0;shadow=0;strokeWidth=1;" parent="WIyWlLk6GJQsqaUBKTNV-1" vertex="1">
          <mxGeometry x="120" y="360" width="160" height="138" as="geometry">
            <mxRectangle x="130" y="380" width="160" height="26" as="alternateBounds" />
          </mxGeometry>
        </mxCell>
        <mxCell id="zkfFHV4jXpPFQw0GAbJ--7" value="Student Number" style="text;align=left;verticalAlign=top;spacingLeft=4;spacingRight=4;overflow=hidden;rotatable=0;points=[[0,0.5],[1,0.5]];portConstraint=eastwest;" parent="zkfFHV4jXpPFQw0GAbJ--6" vertex="1">
          <mxGeometry y="26" width="160" height="26" as="geometry" />
        </mxCell>
        <mxCell id="zkfFHV4jXpPFQw0GAbJ--8" value="Average Mark" style="text;align=left;verticalAlign=top;spacingLeft=4;spacingRight=4;overflow=hidden;rotatable=0;points=[[0,0.5],[1,0.5]];portConstraint=eastwest;rounded=0;shadow=0;html=0;" parent="zkfFHV4jXpPFQw0GAbJ--6" vertex="1">
          <mxGeometry y="52" width="160" height="26" as="geometry" />
        </mxCell>
        <mxCell id="zkfFHV4jXpPFQw0GAbJ--9" value="" style="line;html=1;strokeWidth=1;align=left;verticalAlign=middle;spacingTop=-1;spacingLeft=3;spacingRight=3;rotatable=0;labelPosition=right;points=[];portConstraint=eastwest;" parent="zkfFHV4jXpPFQw0GAbJ--6" vertex="1">
          <mxGeometry y="78" width="160" height="8" as="geometry" />
        </mxCell>
        <mxCell id="zkfFHV4jXpPFQw0GAbJ--10" value="Is Eligible To Enroll" style="text;align=left;verticalAlign=top;spacingLeft=4;spacingRight=4;overflow=hidden;rotatable=0;points=[[0,0.5],[1,0.5]];portConstraint=eastwest;fontStyle=4" parent="zkfFHV4jXpPFQw0GAbJ--6" vertex="1">
          <mxGeometry y="86" width="160" height="26" as="geometry" />
        </mxCell>
        <mxCell id="zkfFHV4jXpPFQw0GAbJ--11" value="Get Seminars Taken" style="text;align=left;verticalAlign=top;spacingLeft=4;spacingRight=4;overflow=hidden;rotatable=0;points=[[0,0.5],[1,0.5]];portConstraint=eastwest;" parent="zkfFHV4jXpPFQw0GAbJ--6" vertex="1">
          <mxGeometry y="112" width="160" height="26" as="geometry" />
        </mxCell>
        <mxCell id="zkfFHV4jXpPFQw0GAbJ--12" value="" style="endArrow=block;endSize=10;endFill=0;shadow=0;strokeWidth=1;rounded=0;curved=0;edgeStyle=elbowEdgeStyle;elbow=vertical;" parent="WIyWlLk6GJQsqaUBKTNV-1" source="zkfFHV4jXpPFQw0GAbJ--6" target="zkfFHV4jXpPFQw0GAbJ--0" edge="1">
          <mxGeometry width="160" relative="1" as="geometry">
            <mxPoint x="200" y="203" as="sourcePoint" />
            <mxPoint x="200" y="203" as="targetPoint" />
          </mxGeometry>
        </mxCell>
        <mxCell id="zkfFHV4jXpPFQw0GAbJ--13" value="Professor" style="swimlane;fontStyle=0;align=center;verticalAlign=top;childLayout=stackLayout;horizontal=1;startSize=26;horizontalStack=0;resizeParent=1;resizeLast=0;collapsible=1;marginBottom=0;rounded=0;shadow=0;strokeWidth=1;" parent="WIyWlLk6GJQsqaUBKTNV-1" vertex="1">
          <mxGeometry x="330" y="360" width="160" height="70" as="geometry">
            <mxRectangle x="340" y="380" width="170" height="26" as="alternateBounds" />
          </mxGeometry>
        </mxCell>
        <mxCell id="zkfFHV4jXpPFQw0GAbJ--14" value="Salary" style="text;align=left;verticalAlign=top;spacingLeft=4;spacingRight=4;overflow=hidden;rotatable=0;points=[[0,0.5],[1,0.5]];portConstraint=eastwest;" parent="zkfFHV4jXpPFQw0GAbJ--13" vertex="1">
          <mxGeometry y="26" width="160" height="26" as="geometry" />
        </mxCell>
        <mxCell id="zkfFHV4jXpPFQw0GAbJ--15" value="" style="line;html=1;strokeWidth=1;align=left;verticalAlign=middle;spacingTop=-1;spacingLeft=3;spacingRight=3;rotatable=0;labelPosition=right;points=[];portConstraint=eastwest;" parent="zkfFHV4jXpPFQw0GAbJ--13" vertex="1">
          <mxGeometry y="52" width="160" height="8" as="geometry" />
        </mxCell>
        <mxCell id="zkfFHV4jXpPFQw0GAbJ--16" value="" style="endArrow=block;endSize=10;endFill=0;shadow=0;strokeWidth=1;rounded=0;curved=0;edgeStyle=elbowEdgeStyle;elbow=vertical;" parent="WIyWlLk6GJQsqaUBKTNV-1" source="zkfFHV4jXpPFQw0GAbJ--13" target="zkfFHV4jXpPFQw0GAbJ--0" edge="1">
          <mxGeometry width="160" relative="1" as="geometry">
            <mxPoint x="210" y="373" as="sourcePoint" />
            <mxPoint x="310" y="271" as="targetPoint" />
          </mxGeometry>
        </mxCell>
        <mxCell id="zkfFHV4jXpPFQw0GAbJ--17" value="Address" style="swimlane;fontStyle=0;align=center;verticalAlign=top;childLayout=stackLayout;horizontal=1;startSize=26;horizontalStack=0;resizeParent=1;resizeLast=0;collapsible=1;marginBottom=0;rounded=0;shadow=0;strokeWidth=1;" parent="WIyWlLk6GJQsqaUBKTNV-1" vertex="1">
          <mxGeometry x="508" y="120" width="160" height="216" as="geometry">
            <mxRectangle x="550" y="140" width="160" height="26" as="alternateBounds" />
          </mxGeometry>
        </mxCell>
        <mxCell id="zkfFHV4jXpPFQw0GAbJ--18" value="Street" style="text;align=left;verticalAlign=top;spacingLeft=4;spacingRight=4;overflow=hidden;rotatable=0;points=[[0,0.5],[1,0.5]];portConstraint=eastwest;" parent="zkfFHV4jXpPFQw0GAbJ--17" vertex="1">
          <mxGeometry y="26" width="160" height="26" as="geometry" />
        </mxCell>
        <mxCell id="zkfFHV4jXpPFQw0GAbJ--19" value="City" style="text;align=left;verticalAlign=top;spacingLeft=4;spacingRight=4;overflow=hidden;rotatable=0;points=[[0,0.5],[1,0.5]];portConstraint=eastwest;rounded=0;shadow=0;html=0;" parent="zkfFHV4jXpPFQw0GAbJ--17" vertex="1">
          <mxGeometry y="52" width="160" height="26" as="geometry" />
        </mxCell>
        <mxCell id="zkfFHV4jXpPFQw0GAbJ--20" value="State" style="text;align=left;verticalAlign=top;spacingLeft=4;spacingRight=4;overflow=hidden;rotatable=0;points=[[0,0.5],[1,0.5]];portConstraint=eastwest;rounded=0;shadow=0;html=0;" parent="zkfFHV4jXpPFQw0GAbJ--17" vertex="1">
          <mxGeometry y="78" width="160" height="26" as="geometry" />
        </mxCell>
        <mxCell id="zkfFHV4jXpPFQw0GAbJ--21" value="Postal Code" style="text;align=left;verticalAlign=top;spacingLeft=4;spacingRight=4;overflow=hidden;rotatable=0;points=[[0,0.5],[1,0.5]];portConstraint=eastwest;rounded=0;shadow=0;html=0;" parent="zkfFHV4jXpPFQw0GAbJ--17" vertex="1">
          <mxGeometry y="104" width="160" height="26" as="geometry" />
        </mxCell>
        <mxCell id="zkfFHV4jXpPFQw0GAbJ--22" value="Country" style="text;align=left;verticalAlign=top;spacingLeft=4;spacingRight=4;overflow=hidden;rotatable=0;points=[[0,0.5],[1,0.5]];portConstraint=eastwest;rounded=0;shadow=0;html=0;" parent="zkfFHV4jXpPFQw0GAbJ--17" vertex="1">
          <mxGeometry y="130" width="160" height="26" as="geometry" />
        </mxCell>
        <mxCell id="zkfFHV4jXpPFQw0GAbJ--23" value="" style="line;html=1;strokeWidth=1;align=left;verticalAlign=middle;spacingTop=-1;spacingLeft=3;spacingRight=3;rotatable=0;labelPosition=right;points=[];portConstraint=eastwest;" parent="zkfFHV4jXpPFQw0GAbJ--17" vertex="1">
          <mxGeometry y="156" width="160" height="8" as="geometry" />
        </mxCell>
        <mxCell id="zkfFHV4jXpPFQw0GAbJ--24" value="Validate" style="text;align=left;verticalAlign=top;spacingLeft=4;spacingRight=4;overflow=hidden;rotatable=0;points=[[0,0.5],[1,0.5]];portConstraint=eastwest;" parent="zkfFHV4jXpPFQw0GAbJ--17" vertex="1">
          <mxGeometry y="164" width="160" height="26" as="geometry" />
        </mxCell>
        <mxCell id="zkfFHV4jXpPFQw0GAbJ--25" value="Output As Label" style="text;align=left;verticalAlign=top;spacingLeft=4;spacingRight=4;overflow=hidden;rotatable=0;points=[[0,0.5],[1,0.5]];portConstraint=eastwest;" parent="zkfFHV4jXpPFQw0GAbJ--17" vertex="1">
          <mxGeometry y="190" width="160" height="26" as="geometry" />
        </mxCell>
        <mxCell id="zkfFHV4jXpPFQw0GAbJ--26" value="" style="endArrow=open;shadow=0;strokeWidth=1;rounded=0;curved=0;endFill=1;edgeStyle=elbowEdgeStyle;elbow=vertical;" parent="WIyWlLk6GJQsqaUBKTNV-1" source="zkfFHV4jXpPFQw0GAbJ--0" target="zkfFHV4jXpPFQw0GAbJ--17" edge="1">
          <mxGeometry x="0.5" y="41" relative="1" as="geometry">
            <mxPoint x="380" y="192" as="sourcePoint" />
            <mxPoint x="540" y="192" as="targetPoint" />
            <mxPoint x="-40" y="32" as="offset" />
          </mxGeometry>
        </mxCell>
        <mxCell id="zkfFHV4jXpPFQw0GAbJ--27" value="0..1" style="resizable=0;align=left;verticalAlign=bottom;labelBackgroundColor=none;fontSize=12;" parent="zkfFHV4jXpPFQw0GAbJ--26" connectable="0" vertex="1">
          <mxGeometry x="-1" relative="1" as="geometry">
            <mxPoint y="4" as="offset" />
          </mxGeometry>
        </mxCell>
        <mxCell id="zkfFHV4jXpPFQw0GAbJ--28" value="1" style="resizable=0;align=right;verticalAlign=bottom;labelBackgroundColor=none;fontSize=12;" parent="zkfFHV4jXpPFQw0GAbJ--26" connectable="0" vertex="1">
          <mxGeometry x="1" relative="1" as="geometry">
            <mxPoint x="-7" y="4" as="offset" />
          </mxGeometry>
        </mxCell>
        <mxCell id="zkfFHV4jXpPFQw0GAbJ--29" value="lives at" style="text;html=1;resizable=0;points=[];;align=center;verticalAlign=middle;labelBackgroundColor=none;rounded=0;shadow=0;strokeWidth=1;fontSize=12;" parent="zkfFHV4jXpPFQw0GAbJ--26" vertex="1" connectable="0">
          <mxGeometry x="0.5" y="49" relative="1" as="geometry">
            <mxPoint x="-38" y="40" as="offset" />
          </mxGeometry>
        </mxCell>
        <UserObject label="" plantUmlData="{&#xa;  &quot;data&quot;: &quot;@startuml\n\n&#39; Main Classes \nclass User {\n  +id: Integer\n  +name: String\n  +email: String\n  +score: Float\n  +inputURL(): void\n  +viewTranscript(): void\n  +viewSummary(): void\n  +takeQuiz(): void\n  +viewScore(): void\n}\n\nclass YouTubeProcessor {\n  +videoURL: String\n  +transcript: String\n  +fetchTranscript(videoURL: String): String\n}\n\nclass TranscriptAnalyzer {\n  +transcript: String\n  +summary: String\n  +generateSummary(transcript: String): String\n}\n\nclass QuizGenerator {\n  +questions: List&lt;Question&gt;\n  +mcqQuestions: List&lt;MCQ&gt;\n  +shortQuestions: List&lt;ShortAnswer&gt;\n  +generateMCQs(transcript: String): List&lt;MCQ&gt;\n  +generateShortQuestions(transcript: String): List&lt;ShortAnswer&gt;\n}\n\nclass ScoreEvaluator {\n  +score: Float\n  +correctAnswers: List&lt;String&gt;\n  +evaluateAnswers(userAnswers: List&lt;String&gt;): Float\n}\n\nclass Question {\n  +questionText: String\n  +answer: String\n}\n\nclass MCQ {\n  +options: List&lt;String&gt;\n  +correctOption: String\n}\n\nclass ShortAnswer {\n  +correctAnswer: String\n}\n\nclass API {\n  +fetchTranscript(videoURL: String): String\n  +fetchSummary(transcript: String): String\n  +fetchQuiz(transcript: String): List&lt;Question&gt;\n}\n\n&#39; Relationships\nUser --&gt; YouTubeProcessor : \&quot;inputs video URL\&quot;\nUser --&gt; TranscriptAnalyzer : \&quot;views transcript and summary\&quot;\nUser --&gt; QuizGenerator : \&quot;takes quiz\&quot;\nUser --&gt; ScoreEvaluator : \&quot;gets score\&quot;\n\nQuizGenerator --&gt; Question\nQuizGenerator --&gt; MCQ\nQuizGenerator --&gt; ShortAnswer\n\nQuestion &lt;|-- MCQ\nQuestion &lt;|-- ShortAnswer\n\nYouTubeProcessor --&gt; TranscriptAnalyzer : \&quot;sends transcript\&quot;\nTranscriptAnalyzer --&gt; QuizGenerator : \&quot;sends summary\&quot;\n\nAPI --&gt; YouTubeProcessor\nAPI --&gt; TranscriptAnalyzer\nAPI --&gt; QuizGenerator\n\n@enduml\n&quot;,&#xa;  &quot;format&quot;: &quot;svg&quot;&#xa;}" id="ix7qPK_Rp_QTGJkXKcBH-0">
          <mxCell style="shape=image;noLabel=1;verticalAlign=top;aspect=fixed;imageAspect=0;image=data:image/svg+xml,PD94bWwgdmVyc2lvbj0iMS4wIiBlbmNvZGluZz0idXMtYXNjaWkiIHN0YW5kYWxvbmU9Im5vIj8+PHN2ZyB4bWxucz0iaHR0cDovL3d3dy53My5vcmcvMjAwMC9zdmciIHhtbG5zOnhsaW5rPSJodHRwOi8vd3d3LnczLm9yZy8xOTk5L3hsaW5rIiBjb250ZW50U3R5bGVUeXBlPSJ0ZXh0L2NzcyIgaGVpZ2h0PSIxMDA4cHgiIHByZXNlcnZlQXNwZWN0UmF0aW89Im5vbmUiIHN0eWxlPSJ3aWR0aDoxMjQwcHg7aGVpZ2h0OjEwMDhweDtiYWNrZ3JvdW5kOiNGRkZGRkY7IiB2ZXJzaW9uPSIxLjEiIHZpZXdCb3g9IjAgMCAxMjQwIDEwMDgiIHdpZHRoPSIxMjQwcHgiIHpvb21BbmRQYW49Im1hZ25pZnkiPjxkZWZzLz48Zz48IS0tY2xhc3MgVXNlci0tPjxnIGlkPSJlbGVtX1VzZXIiPjxyZWN0IGNvZGVMaW5lPSIyIiBmaWxsPSIjRjFGMUYxIiBoZWlnaHQ9IjE4Mi44NTk0IiBpZD0iVXNlciIgcng9IjIuNSIgcnk9IjIuNSIgc3R5bGU9InN0cm9rZTojMTgxODE4O3N0cm9rZS13aWR0aDowLjU7IiB3aWR0aD0iMTgzIiB4PSIxNzQuNzUiIHk9IjciLz48ZWxsaXBzZSBjeD0iMjQ4IiBjeT0iMjMiIGZpbGw9IiNBREQxQjIiIHJ4PSIxMSIgcnk9IjExIiBzdHlsZT0ic3Ryb2tlOiMxODE4MTg7c3Ryb2tlLXdpZHRoOjEuMDsiLz48cGF0aCBkPSJNMjQ1LjYyNSwyNy4yNSBMMjQ1LjYyNSwyOSBMMjUwLjU2MjUsMjkgTDI1MC41NjI1LDI3LjI1IEwyNDUuNjI1LDI3LjI1IFogTTI0Ni4zMTI1LDI3LjkzNzUgUTI0Ni4zMTI1LDI3LjkzNzUgMjQ2LjMxMjUsMTguNzUgTDI0NC41NjI1LDE4Ljc1IFEyNDQuNTYyNSwxOC43NSAyNDQuNTYyNSwyNy45Mzc1IEwyNDYuMzEyNSwyNy45Mzc1IFogTTI0OS44NzUsMjcuOTM3NSBMMjUxLjYyNSwyNy45Mzc1IFEyNTEuNjI1LDI3LjkzNzUgMjUxLjYyNSwyNS4xMjUgTDI0OS44NzUsMjUuMTI1IFEyNDkuODc1LDI1LjEyNSAyNDkuODc1LDI3LjkzNzUgWiBNMjQ5Ljg3NSwxOC43NSBRMjQ5Ljg3NSwxOC43NSAyNDkuODc1LDIxLjU2MjUgTDI1MS42MjUsMjEuNTYyNSBRMjUxLjYyNSwyMS41NjI1IDI1MS42MjUsMTguNzUgTDI0OS44NzUsMTguNzUgWiBNMjQ1LjYyNSwxOS40Mzc1IEwyNTAuNTYyNSwxOS40Mzc1IEwyNTAuNTYyNSwxNy42ODc1IEwyNDUuNjI1LDE3LjY4NzUgTDI0NS42MjUsMTkuNDM3NSBaICIgZmlsbD0iIzAwMDAwMCIvPjx0ZXh0IGZpbGw9IiMwMDAwMDAiIGZvbnQtZmFtaWx5PSJzYW5zLXNlcmlmIiBmb250LXNpemU9IjE0IiBsZW5ndGhBZGp1c3Q9InNwYWNpbmciIHRleHRMZW5ndGg9IjI4IiB4PSIyNjguNSIgeT0iMjguNzQyMiI+VXNlcjwvdGV4dD48bGluZSBzdHlsZT0ic3Ryb2tlOiMxODE4MTg7c3Ryb2tlLXdpZHRoOjAuNTsiIHgxPSIxNzUuNzUiIHgyPSIzNTYuNzUiIHkxPSIzOSIgeTI9IjM5Ii8+PGVsbGlwc2UgY3g9IjE4NS43NSIgY3k9IjUxLjk5MjIiIGZpbGw9Im5vbmUiIHJ4PSIzIiByeT0iMyIgc3R5bGU9InN0cm9rZTojMDM4MDQ4O3N0cm9rZS13aWR0aDoxLjA7Ii8+PHRleHQgZmlsbD0iIzAwMDAwMCIgZm9udC1mYW1pbHk9InNhbnMtc2VyaWYiIGZvbnQtc2l6ZT0iMTQiIGxlbmd0aEFkanVzdD0ic3BhY2luZyIgdGV4dExlbmd0aD0iNzciIHg9IjE5NC43NSIgeT0iNTYuMjM0NCI+aWQ6IEludGVnZXI8L3RleHQ+PGVsbGlwc2UgY3g9IjE4NS43NSIgY3k9IjY2Ljk3NjYiIGZpbGw9Im5vbmUiIHJ4PSIzIiByeT0iMyIgc3R5bGU9InN0cm9rZTojMDM4MDQ4O3N0cm9rZS13aWR0aDoxLjA7Ii8+PHRleHQgZmlsbD0iIzAwMDAwMCIgZm9udC1mYW1pbHk9InNhbnMtc2VyaWYiIGZvbnQtc2l6ZT0iMTQiIGxlbmd0aEFkanVzdD0ic3BhY2luZyIgdGV4dExlbmd0aD0iODUiIHg9IjE5NC43NSIgeT0iNzEuMjE4OCI+bmFtZTogU3RyaW5nPC90ZXh0PjxlbGxpcHNlIGN4PSIxODUuNzUiIGN5PSI4MS45NjA5IiBmaWxsPSJub25lIiByeD0iMyIgcnk9IjMiIHN0eWxlPSJzdHJva2U6IzAzODA0ODtzdHJva2Utd2lkdGg6MS4wOyIvPjx0ZXh0IGZpbGw9IiMwMDAwMDAiIGZvbnQtZmFtaWx5PSJzYW5zLXNlcmlmIiBmb250LXNpemU9IjE0IiBsZW5ndGhBZGp1c3Q9InNwYWNpbmciIHRleHRMZW5ndGg9IjkyIiB4PSIxOTQuNzUiIHk9Ijg2LjIwMzEiPmVtYWlsOiBTdHJpbmc8L3RleHQ+PGVsbGlwc2UgY3g9IjE4NS43NSIgY3k9Ijk2Ljk0NTMiIGZpbGw9Im5vbmUiIHJ4PSIzIiByeT0iMyIgc3R5bGU9InN0cm9rZTojMDM4MDQ4O3N0cm9rZS13aWR0aDoxLjA7Ii8+PHRleHQgZmlsbD0iIzAwMDAwMCIgZm9udC1mYW1pbHk9InNhbnMtc2VyaWYiIGZvbnQtc2l6ZT0iMTQiIGxlbmd0aEFkanVzdD0ic3BhY2luZyIgdGV4dExlbmd0aD0iODQiIHg9IjE5NC43NSIgeT0iMTAxLjE4NzUiPnNjb3JlOiBGbG9hdDwvdGV4dD48bGluZSBzdHlsZT0ic3Ryb2tlOiMxODE4MTg7c3Ryb2tlLXdpZHRoOjAuNTsiIHgxPSIxNzUuNzUiIHgyPSIzNTYuNzUiIHkxPSIxMDYuOTM3NSIgeTI9IjEwNi45Mzc1Ii8+PGVsbGlwc2UgY3g9IjE4NS43NSIgY3k9IjExOS45Mjk3IiBmaWxsPSIjODRCRTg0IiByeD0iMyIgcnk9IjMiIHN0eWxlPSJzdHJva2U6IzAzODA0ODtzdHJva2Utd2lkdGg6MS4wOyIvPjx0ZXh0IGZpbGw9IiMwMDAwMDAiIGZvbnQtZmFtaWx5PSJzYW5zLXNlcmlmIiBmb250LXNpemU9IjE0IiBsZW5ndGhBZGp1c3Q9InNwYWNpbmciIHRleHRMZW5ndGg9IjExNCIgeD0iMTk0Ljc1IiB5PSIxMjQuMTcxOSI+aW5wdXRVUkwoKTogdm9pZDwvdGV4dD48ZWxsaXBzZSBjeD0iMTg1Ljc1IiBjeT0iMTM0LjkxNDEiIGZpbGw9IiM4NEJFODQiIHJ4PSIzIiByeT0iMyIgc3R5bGU9InN0cm9rZTojMDM4MDQ4O3N0cm9rZS13aWR0aDoxLjA7Ii8+PHRleHQgZmlsbD0iIzAwMDAwMCIgZm9udC1mYW1pbHk9InNhbnMtc2VyaWYiIGZvbnQtc2l6ZT0iMTQiIGxlbmd0aEFkanVzdD0ic3BhY2luZyIgdGV4dExlbmd0aD0iMTU3IiB4PSIxOTQuNzUiIHk9IjEzOS4xNTYzIj52aWV3VHJhbnNjcmlwdCgpOiB2b2lkPC90ZXh0PjxlbGxpcHNlIGN4PSIxODUuNzUiIGN5PSIxNDkuODk4NCIgZmlsbD0iIzg0QkU4NCIgcng9IjMiIHJ5PSIzIiBzdHlsZT0ic3Ryb2tlOiMwMzgwNDg7c3Ryb2tlLXdpZHRoOjEuMDsiLz48dGV4dCBmaWxsPSIjMDAwMDAwIiBmb250LWZhbWlseT0ic2Fucy1zZXJpZiIgZm9udC1zaXplPSIxNCIgbGVuZ3RoQWRqdXN0PSJzcGFjaW5nIiB0ZXh0TGVuZ3RoPSIxMzgiIHg9IjE5NC43NSIgeT0iMTU0LjE0MDYiPnZpZXdTdW1tYXJ5KCk6IHZvaWQ8L3RleHQ+PGVsbGlwc2UgY3g9IjE4NS43NSIgY3k9IjE2NC44ODI4IiBmaWxsPSIjODRCRTg0IiByeD0iMyIgcnk9IjMiIHN0eWxlPSJzdHJva2U6IzAzODA0ODtzdHJva2Utd2lkdGg6MS4wOyIvPjx0ZXh0IGZpbGw9IiMwMDAwMDAiIGZvbnQtZmFtaWx5PSJzYW5zLXNlcmlmIiBmb250LXNpemU9IjE0IiBsZW5ndGhBZGp1c3Q9InNwYWNpbmciIHRleHRMZW5ndGg9IjExNCIgeD0iMTk0Ljc1IiB5PSIxNjkuMTI1Ij50YWtlUXVpeigpOiB2b2lkPC90ZXh0PjxlbGxpcHNlIGN4PSIxODUuNzUiIGN5PSIxNzkuODY3MiIgZmlsbD0iIzg0QkU4NCIgcng9IjMiIHJ5PSIzIiBzdHlsZT0ic3Ryb2tlOiMwMzgwNDg7c3Ryb2tlLXdpZHRoOjEuMDsiLz48dGV4dCBmaWxsPSIjMDAwMDAwIiBmb250LWZhbWlseT0ic2Fucy1zZXJpZiIgZm9udC1zaXplPSIxNCIgbGVuZ3RoQWRqdXN0PSJzcGFjaW5nIiB0ZXh0TGVuZ3RoPSIxMjIiIHg9IjE5NC43NSIgeT0iMTg0LjEwOTQiPnZpZXdTY29yZSgpOiB2b2lkPC90ZXh0PjwvZz48IS0tY2xhc3MgWW91VHViZVByb2Nlc3Nvci0tPjxnIGlkPSJlbGVtX1lvdVR1YmVQcm9jZXNzb3IiPjxyZWN0IGNvZGVMaW5lPSIxNCIgZmlsbD0iI0YxRjFGMSIgaGVpZ2h0PSI5Mi45NTMxIiBpZD0iWW91VHViZVByb2Nlc3NvciIgcng9IjIuNSIgcnk9IjIuNSIgc3R5bGU9InN0cm9rZTojMTgxODE4O3N0cm9rZS13aWR0aDowLjU7IiB3aWR0aD0iMzE1IiB4PSI2OTMuNzUiIHk9IjI2NSIvPjxlbGxpcHNlIGN4PSI3OTEiIGN5PSIyODEiIGZpbGw9IiNBREQxQjIiIHJ4PSIxMSIgcnk9IjExIiBzdHlsZT0ic3Ryb2tlOiMxODE4MTg7c3Ryb2tlLXdpZHRoOjEuMDsiLz48cGF0aCBkPSJNNzg4LjYyNSwyODUuMjUgTDc4OC42MjUsMjg3IEw3OTMuNTYyNSwyODcgTDc5My41NjI1LDI4NS4yNSBMNzg4LjYyNSwyODUuMjUgWiBNNzg5LjMxMjUsMjg1LjkzNzUgUTc4OS4zMTI1LDI4NS45Mzc1IDc4OS4zMTI1LDI3Ni43NSBMNzg3LjU2MjUsMjc2Ljc1IFE3ODcuNTYyNSwyNzYuNzUgNzg3LjU2MjUsMjg1LjkzNzUgTDc4OS4zMTI1LDI4NS45Mzc1IFogTTc5Mi44NzUsMjg1LjkzNzUgTDc5NC42MjUsMjg1LjkzNzUgUTc5NC42MjUsMjg1LjkzNzUgNzk0LjYyNSwyODMuMTI1IEw3OTIuODc1LDI4My4xMjUgUTc5Mi44NzUsMjgzLjEyNSA3OTIuODc1LDI4NS45Mzc1IFogTTc5Mi44NzUsMjc2Ljc1IFE3OTIuODc1LDI3Ni43NSA3OTIuODc1LDI3OS41NjI1IEw3OTQuNjI1LDI3OS41NjI1IFE3OTQuNjI1LDI3OS41NjI1IDc5NC42MjUsMjc2Ljc1IEw3OTIuODc1LDI3Ni43NSBaIE03ODguNjI1LDI3Ny40Mzc1IEw3OTMuNTYyNSwyNzcuNDM3NSBMNzkzLjU2MjUsMjc1LjY4NzUgTDc4OC42MjUsMjc1LjY4NzUgTDc4OC42MjUsMjc3LjQzNzUgWiAiIGZpbGw9IiMwMDAwMDAiLz48dGV4dCBmaWxsPSIjMDAwMDAwIiBmb250LWZhbWlseT0ic2Fucy1zZXJpZiIgZm9udC1zaXplPSIxNCIgbGVuZ3RoQWRqdXN0PSJzcGFjaW5nIiB0ZXh0TGVuZ3RoPSIxMTIiIHg9IjgxMS41IiB5PSIyODYuNzQyMiI+WW91VHViZVByb2Nlc3NvcjwvdGV4dD48bGluZSBzdHlsZT0ic3Ryb2tlOiMxODE4MTg7c3Ryb2tlLXdpZHRoOjAuNTsiIHgxPSI2OTQuNzUiIHgyPSIxMDA3Ljc1IiB5MT0iMjk3IiB5Mj0iMjk3Ii8+PGVsbGlwc2UgY3g9IjcwNC43NSIgY3k9IjMwOS45OTIyIiBmaWxsPSJub25lIiByeD0iMyIgcnk9IjMiIHN0eWxlPSJzdHJva2U6IzAzODA0ODtzdHJva2Utd2lkdGg6MS4wOyIvPjx0ZXh0IGZpbGw9IiMwMDAwMDAiIGZvbnQtZmFtaWx5PSJzYW5zLXNlcmlmIiBmb250LXNpemU9IjE0IiBsZW5ndGhBZGp1c3Q9InNwYWNpbmciIHRleHRMZW5ndGg9IjExMiIgeD0iNzEzLjc1IiB5PSIzMTQuMjM0NCI+dmlkZW9VUkw6IFN0cmluZzwvdGV4dD48ZWxsaXBzZSBjeD0iNzA0Ljc1IiBjeT0iMzI0Ljk3NjYiIGZpbGw9Im5vbmUiIHJ4PSIzIiByeT0iMyIgc3R5bGU9InN0cm9rZTojMDM4MDQ4O3N0cm9rZS13aWR0aDoxLjA7Ii8+PHRleHQgZmlsbD0iIzAwMDAwMCIgZm9udC1mYW1pbHk9InNhbnMtc2VyaWYiIGZvbnQtc2l6ZT0iMTQiIGxlbmd0aEFkanVzdD0ic3BhY2luZyIgdGV4dExlbmd0aD0iMTI2IiB4PSI3MTMuNzUiIHk9IjMyOS4yMTg4Ij50cmFuc2NyaXB0OiBTdHJpbmc8L3RleHQ+PGxpbmUgc3R5bGU9InN0cm9rZTojMTgxODE4O3N0cm9rZS13aWR0aDowLjU7IiB4MT0iNjk0Ljc1IiB4Mj0iMTAwNy43NSIgeTE9IjMzNC45Njg4IiB5Mj0iMzM0Ljk2ODgiLz48ZWxsaXBzZSBjeD0iNzA0Ljc1IiBjeT0iMzQ3Ljk2MDkiIGZpbGw9IiM4NEJFODQiIHJ4PSIzIiByeT0iMyIgc3R5bGU9InN0cm9rZTojMDM4MDQ4O3N0cm9rZS13aWR0aDoxLjA7Ii8+PHRleHQgZmlsbD0iIzAwMDAwMCIgZm9udC1mYW1pbHk9InNhbnMtc2VyaWYiIGZvbnQtc2l6ZT0iMTQiIGxlbmd0aEFkanVzdD0ic3BhY2luZyIgdGV4dExlbmd0aD0iMjg5IiB4PSI3MTMuNzUiIHk9IjM1Mi4yMDMxIj5mZXRjaFRyYW5zY3JpcHQodmlkZW9VUkw6IFN0cmluZyk6IFN0cmluZzwvdGV4dD48L2c+PCEtLWNsYXNzIFRyYW5zY3JpcHRBbmFseXplci0tPjxnIGlkPSJlbGVtX1RyYW5zY3JpcHRBbmFseXplciI+PHJlY3QgY29kZUxpbmU9IjIwIiBmaWxsPSIjRjFGMUYxIiBoZWlnaHQ9IjkyLjk1MzEiIGlkPSJUcmFuc2NyaXB0QW5hbHl6ZXIiIHJ4PSIyLjUiIHJ5PSIyLjUiIHN0eWxlPSJzdHJva2U6IzE4MTgxODtzdHJva2Utd2lkdGg6MC41OyIgd2lkdGg9IjMzMSIgeD0iNjg1Ljc1IiB5PSI0MzMiLz48ZWxsaXBzZSBjeD0iNzg0IiBjeT0iNDQ5IiBmaWxsPSIjQUREMUIyIiByeD0iMTEiIHJ5PSIxMSIgc3R5bGU9InN0cm9rZTojMTgxODE4O3N0cm9rZS13aWR0aDoxLjA7Ii8+PHBhdGggZD0iTTc4MS42MjUsNDUzLjI1IEw3ODEuNjI1LDQ1NSBMNzg2LjU2MjUsNDU1IEw3ODYuNTYyNSw0NTMuMjUgTDc4MS42MjUsNDUzLjI1IFogTTc4Mi4zMTI1LDQ1My45Mzc1IFE3ODIuMzEyNSw0NTMuOTM3NSA3ODIuMzEyNSw0NDQuNzUgTDc4MC41NjI1LDQ0NC43NSBRNzgwLjU2MjUsNDQ0Ljc1IDc4MC41NjI1LDQ1My45Mzc1IEw3ODIuMzEyNSw0NTMuOTM3NSBaIE03ODUuODc1LDQ1My45Mzc1IEw3ODcuNjI1LDQ1My45Mzc1IFE3ODcuNjI1LDQ1My45Mzc1IDc4Ny42MjUsNDUxLjEyNSBMNzg1Ljg3NSw0NTEuMTI1IFE3ODUuODc1LDQ1MS4xMjUgNzg1Ljg3NSw0NTMuOTM3NSBaIE03ODUuODc1LDQ0NC43NSBRNzg1Ljg3NSw0NDQuNzUgNzg1Ljg3NSw0NDcuNTYyNSBMNzg3LjYyNSw0NDcuNTYyNSBRNzg3LjYyNSw0NDcuNTYyNSA3ODcuNjI1LDQ0NC43NSBMNzg1Ljg3NSw0NDQuNzUgWiBNNzgxLjYyNSw0NDUuNDM3NSBMNzg2LjU2MjUsNDQ1LjQzNzUgTDc4Ni41NjI1LDQ0My42ODc1IEw3ODEuNjI1LDQ0My42ODc1IEw3ODEuNjI1LDQ0NS40Mzc1IFogIiBmaWxsPSIjMDAwMDAwIi8+PHRleHQgZmlsbD0iIzAwMDAwMCIgZm9udC1mYW1pbHk9InNhbnMtc2VyaWYiIGZvbnQtc2l6ZT0iMTQiIGxlbmd0aEFkanVzdD0ic3BhY2luZyIgdGV4dExlbmd0aD0iMTI2IiB4PSI4MDQuNSIgeT0iNDU0Ljc0MjIiPlRyYW5zY3JpcHRBbmFseXplcjwvdGV4dD48bGluZSBzdHlsZT0ic3Ryb2tlOiMxODE4MTg7c3Ryb2tlLXdpZHRoOjAuNTsiIHgxPSI2ODYuNzUiIHgyPSIxMDE1Ljc1IiB5MT0iNDY1IiB5Mj0iNDY1Ii8+PGVsbGlwc2UgY3g9IjY5Ni43NSIgY3k9IjQ3Ny45OTIyIiBmaWxsPSJub25lIiByeD0iMyIgcnk9IjMiIHN0eWxlPSJzdHJva2U6IzAzODA0ODtzdHJva2Utd2lkdGg6MS4wOyIvPjx0ZXh0IGZpbGw9IiMwMDAwMDAiIGZvbnQtZmFtaWx5PSJzYW5zLXNlcmlmIiBmb250LXNpemU9IjE0IiBsZW5ndGhBZGp1c3Q9InNwYWNpbmciIHRleHRMZW5ndGg9IjEyNiIgeD0iNzA1Ljc1IiB5PSI0ODIuMjM0NCI+dHJhbnNjcmlwdDogU3RyaW5nPC90ZXh0PjxlbGxpcHNlIGN4PSI2OTYuNzUiIGN5PSI0OTIuOTc2NiIgZmlsbD0ibm9uZSIgcng9IjMiIHJ5PSIzIiBzdHlsZT0ic3Ryb2tlOiMwMzgwNDg7c3Ryb2tlLXdpZHRoOjEuMDsiLz48dGV4dCBmaWxsPSIjMDAwMDAwIiBmb250LWZhbWlseT0ic2Fucy1zZXJpZiIgZm9udC1zaXplPSIxNCIgbGVuZ3RoQWRqdXN0PSJzcGFjaW5nIiB0ZXh0TGVuZ3RoPSIxMDciIHg9IjcwNS43NSIgeT0iNDk3LjIxODgiPnN1bW1hcnk6IFN0cmluZzwvdGV4dD48bGluZSBzdHlsZT0ic3Ryb2tlOiMxODE4MTg7c3Ryb2tlLXdpZHRoOjAuNTsiIHgxPSI2ODYuNzUiIHgyPSIxMDE1Ljc1IiB5MT0iNTAyLjk2ODgiIHkyPSI1MDIuOTY4OCIvPjxlbGxpcHNlIGN4PSI2OTYuNzUiIGN5PSI1MTUuOTYwOSIgZmlsbD0iIzg0QkU4NCIgcng9IjMiIHJ5PSIzIiBzdHlsZT0ic3Ryb2tlOiMwMzgwNDg7c3Ryb2tlLXdpZHRoOjEuMDsiLz48dGV4dCBmaWxsPSIjMDAwMDAwIiBmb250LWZhbWlseT0ic2Fucy1zZXJpZiIgZm9udC1zaXplPSIxNCIgbGVuZ3RoQWRqdXN0PSJzcGFjaW5nIiB0ZXh0TGVuZ3RoPSIzMDUiIHg9IjcwNS43NSIgeT0iNTIwLjIwMzEiPmdlbmVyYXRlU3VtbWFyeSh0cmFuc2NyaXB0OiBTdHJpbmcpOiBTdHJpbmc8L3RleHQ+PC9nPjwhLS1jbGFzcyBRdWl6R2VuZXJhdG9yLS0+PGcgaWQ9ImVsZW1fUXVpekdlbmVyYXRvciI+PHJlY3QgY29kZUxpbmU9IjI2IiBmaWxsPSIjRjFGMUYxIiBoZWlnaHQ9IjEyMi45MjE5IiBpZD0iUXVpekdlbmVyYXRvciIgcng9IjIuNSIgcnk9IjIuNSIgc3R5bGU9InN0cm9rZTojMTgxODE4O3N0cm9rZS13aWR0aDowLjU7IiB3aWR0aD0iNDU2IiB4PSI2MjMuMjUiIHk9IjYwMSIvPjxlbGxpcHNlIGN4PSI4MDEuNSIgY3k9IjYxNyIgZmlsbD0iI0FERDFCMiIgcng9IjExIiByeT0iMTEiIHN0eWxlPSJzdHJva2U6IzE4MTgxODtzdHJva2Utd2lkdGg6MS4wOyIvPjxwYXRoIGQ9Ik03OTkuMTI1LDYyMS4yNSBMNzk5LjEyNSw2MjMgTDgwNC4wNjI1LDYyMyBMODA0LjA2MjUsNjIxLjI1IEw3OTkuMTI1LDYyMS4yNSBaIE03OTkuODEyNSw2MjEuOTM3NSBRNzk5LjgxMjUsNjIxLjkzNzUgNzk5LjgxMjUsNjEyLjc1IEw3OTguMDYyNSw2MTIuNzUgUTc5OC4wNjI1LDYxMi43NSA3OTguMDYyNSw2MjEuOTM3NSBMNzk5LjgxMjUsNjIxLjkzNzUgWiBNODAzLjM3NSw2MjEuOTM3NSBMODA1LjEyNSw2MjEuOTM3NSBRODA1LjEyNSw2MjEuOTM3NSA4MDUuMTI1LDYxOS4xMjUgTDgwMy4zNzUsNjE5LjEyNSBRODAzLjM3NSw2MTkuMTI1IDgwMy4zNzUsNjIxLjkzNzUgWiBNODAzLjM3NSw2MTIuNzUgUTgwMy4zNzUsNjEyLjc1IDgwMy4zNzUsNjE1LjU2MjUgTDgwNS4xMjUsNjE1LjU2MjUgUTgwNS4xMjUsNjE1LjU2MjUgODA1LjEyNSw2MTIuNzUgTDgwMy4zNzUsNjEyLjc1IFogTTc5OS4xMjUsNjEzLjQzNzUgTDgwNC4wNjI1LDYxMy40Mzc1IEw4MDQuMDYyNSw2MTEuNjg3NSBMNzk5LjEyNSw2MTEuNjg3NSBMNzk5LjEyNSw2MTMuNDM3NSBaICIgZmlsbD0iIzAwMDAwMCIvPjx0ZXh0IGZpbGw9IiMwMDAwMDAiIGZvbnQtZmFtaWx5PSJzYW5zLXNlcmlmIiBmb250LXNpemU9IjE0IiBsZW5ndGhBZGp1c3Q9InNwYWNpbmciIHRleHRMZW5ndGg9IjkxIiB4PSI4MjIiIHk9IjYyMi43NDIyIj5RdWl6R2VuZXJhdG9yPC90ZXh0PjxsaW5lIHN0eWxlPSJzdHJva2U6IzE4MTgxODtzdHJva2Utd2lkdGg6MC41OyIgeDE9IjYyNC4yNSIgeDI9IjEwNzguMjUiIHkxPSI2MzMiIHkyPSI2MzMiLz48ZWxsaXBzZSBjeD0iNjM0LjI1IiBjeT0iNjQ1Ljk5MjIiIGZpbGw9Im5vbmUiIHJ4PSIzIiByeT0iMyIgc3R5bGU9InN0cm9rZTojMDM4MDQ4O3N0cm9rZS13aWR0aDoxLjA7Ii8+PHRleHQgZmlsbD0iIzAwMDAwMCIgZm9udC1mYW1pbHk9InNhbnMtc2VyaWYiIGZvbnQtc2l6ZT0iMTQiIGxlbmd0aEFkanVzdD0ic3BhY2luZyIgdGV4dExlbmd0aD0iMTc1IiB4PSI2NDMuMjUiIHk9IjY1MC4yMzQ0Ij5xdWVzdGlvbnM6IExpc3QmbHQ7UXVlc3Rpb24mZ3Q7PC90ZXh0PjxlbGxpcHNlIGN4PSI2MzQuMjUiIGN5PSI2NjAuOTc2NiIgZmlsbD0ibm9uZSIgcng9IjMiIHJ5PSIzIiBzdHlsZT0ic3Ryb2tlOiMwMzgwNDg7c3Ryb2tlLXdpZHRoOjEuMDsiLz48dGV4dCBmaWxsPSIjMDAwMDAwIiBmb250LWZhbWlseT0ic2Fucy1zZXJpZiIgZm9udC1zaXplPSIxNCIgbGVuZ3RoQWRqdXN0PSJzcGFjaW5nIiB0ZXh0TGVuZ3RoPSIxNjIiIHg9IjY0My4yNSIgeT0iNjY1LjIxODgiPm1jcVF1ZXN0aW9uczogTGlzdCZsdDtNQ1EmZ3Q7PC90ZXh0PjxlbGxpcHNlIGN4PSI2MzQuMjUiIGN5PSI2NzUuOTYwOSIgZmlsbD0ibm9uZSIgcng9IjMiIHJ5PSIzIiBzdHlsZT0ic3Ryb2tlOiMwMzgwNDg7c3Ryb2tlLXdpZHRoOjEuMDsiLz48dGV4dCBmaWxsPSIjMDAwMDAwIiBmb250LWZhbWlseT0ic2Fucy1zZXJpZiIgZm9udC1zaXplPSIxNCIgbGVuZ3RoQWRqdXN0PSJzcGFjaW5nIiB0ZXh0TGVuZ3RoPSIyMzIiIHg9IjY0My4yNSIgeT0iNjgwLjIwMzEiPnNob3J0UXVlc3Rpb25zOiBMaXN0Jmx0O1Nob3J0QW5zd2VyJmd0OzwvdGV4dD48bGluZSBzdHlsZT0ic3Ryb2tlOiMxODE4MTg7c3Ryb2tlLXdpZHRoOjAuNTsiIHgxPSI2MjQuMjUiIHgyPSIxMDc4LjI1IiB5MT0iNjg1Ljk1MzEiIHkyPSI2ODUuOTUzMSIvPjxlbGxpcHNlIGN4PSI2MzQuMjUiIGN5PSI2OTguOTQ1MyIgZmlsbD0iIzg0QkU4NCIgcng9IjMiIHJ5PSIzIiBzdHlsZT0ic3Ryb2tlOiMwMzgwNDg7c3Ryb2tlLXdpZHRoOjEuMDsiLz48dGV4dCBmaWxsPSIjMDAwMDAwIiBmb250LWZhbWlseT0ic2Fucy1zZXJpZiIgZm9udC1zaXplPSIxNCIgbGVuZ3RoQWRqdXN0PSJzcGFjaW5nIiB0ZXh0TGVuZ3RoPSIzMDMiIHg9IjY0My4yNSIgeT0iNzAzLjE4NzUiPmdlbmVyYXRlTUNRcyh0cmFuc2NyaXB0OiBTdHJpbmcpOiBMaXN0Jmx0O01DUSZndDs8L3RleHQ+PGVsbGlwc2UgY3g9IjYzNC4yNSIgY3k9IjcxMy45Mjk3IiBmaWxsPSIjODRCRTg0IiByeD0iMyIgcnk9IjMiIHN0eWxlPSJzdHJva2U6IzAzODA0ODtzdHJva2Utd2lkdGg6MS4wOyIvPjx0ZXh0IGZpbGw9IiMwMDAwMDAiIGZvbnQtZmFtaWx5PSJzYW5zLXNlcmlmIiBmb250LXNpemU9IjE0IiBsZW5ndGhBZGp1c3Q9InNwYWNpbmciIHRleHRMZW5ndGg9IjQzMCIgeD0iNjQzLjI1IiB5PSI3MTguMTcxOSI+Z2VuZXJhdGVTaG9ydFF1ZXN0aW9ucyh0cmFuc2NyaXB0OiBTdHJpbmcpOiBMaXN0Jmx0O1Nob3J0QW5zd2VyJmd0OzwvdGV4dD48L2c+PCEtLWNsYXNzIFNjb3JlRXZhbHVhdG9yLS0+PGcgaWQ9ImVsZW1fU2NvcmVFdmFsdWF0b3IiPjxyZWN0IGNvZGVMaW5lPSIzNCIgZmlsbD0iI0YxRjFGMSIgaGVpZ2h0PSI5Mi45NTMxIiBpZD0iU2NvcmVFdmFsdWF0b3IiIHJ4PSIyLjUiIHJ5PSIyLjUiIHN0eWxlPSJzdHJva2U6IzE4MTgxODtzdHJva2Utd2lkdGg6MC41OyIgd2lkdGg9IjM3MyIgeD0iMjg1Ljc1IiB5PSIyNjUiLz48ZWxsaXBzZSBjeD0iNDE5IiBjeT0iMjgxIiBmaWxsPSIjQUREMUIyIiByeD0iMTEiIHJ5PSIxMSIgc3R5bGU9InN0cm9rZTojMTgxODE4O3N0cm9rZS13aWR0aDoxLjA7Ii8+PHBhdGggZD0iTTQxNi42MjUsMjg1LjI1IEw0MTYuNjI1LDI4NyBMNDIxLjU2MjUsMjg3IEw0MjEuNTYyNSwyODUuMjUgTDQxNi42MjUsMjg1LjI1IFogTTQxNy4zMTI1LDI4NS45Mzc1IFE0MTcuMzEyNSwyODUuOTM3NSA0MTcuMzEyNSwyNzYuNzUgTDQxNS41NjI1LDI3Ni43NSBRNDE1LjU2MjUsMjc2Ljc1IDQxNS41NjI1LDI4NS45Mzc1IEw0MTcuMzEyNSwyODUuOTM3NSBaIE00MjAuODc1LDI4NS45Mzc1IEw0MjIuNjI1LDI4NS45Mzc1IFE0MjIuNjI1LDI4NS45Mzc1IDQyMi42MjUsMjgzLjEyNSBMNDIwLjg3NSwyODMuMTI1IFE0MjAuODc1LDI4My4xMjUgNDIwLjg3NSwyODUuOTM3NSBaIE00MjAuODc1LDI3Ni43NSBRNDIwLjg3NSwyNzYuNzUgNDIwLjg3NSwyNzkuNTYyNSBMNDIyLjYyNSwyNzkuNTYyNSBRNDIyLjYyNSwyNzkuNTYyNSA0MjIuNjI1LDI3Ni43NSBMNDIwLjg3NSwyNzYuNzUgWiBNNDE2LjYyNSwyNzcuNDM3NSBMNDIxLjU2MjUsMjc3LjQzNzUgTDQyMS41NjI1LDI3NS42ODc1IEw0MTYuNjI1LDI3NS42ODc1IEw0MTYuNjI1LDI3Ny40Mzc1IFogIiBmaWxsPSIjMDAwMDAwIi8+PHRleHQgZmlsbD0iIzAwMDAwMCIgZm9udC1mYW1pbHk9InNhbnMtc2VyaWYiIGZvbnQtc2l6ZT0iMTQiIGxlbmd0aEFkanVzdD0ic3BhY2luZyIgdGV4dExlbmd0aD0iOTgiIHg9IjQzOS41IiB5PSIyODYuNzQyMiI+U2NvcmVFdmFsdWF0b3I8L3RleHQ+PGxpbmUgc3R5bGU9InN0cm9rZTojMTgxODE4O3N0cm9rZS13aWR0aDowLjU7IiB4MT0iMjg2Ljc1IiB4Mj0iNjU3Ljc1IiB5MT0iMjk3IiB5Mj0iMjk3Ii8+PGVsbGlwc2UgY3g9IjI5Ni43NSIgY3k9IjMwOS45OTIyIiBmaWxsPSJub25lIiByeD0iMyIgcnk9IjMiIHN0eWxlPSJzdHJva2U6IzAzODA0ODtzdHJva2Utd2lkdGg6MS4wOyIvPjx0ZXh0IGZpbGw9IiMwMDAwMDAiIGZvbnQtZmFtaWx5PSJzYW5zLXNlcmlmIiBmb250LXNpemU9IjE0IiBsZW5ndGhBZGp1c3Q9InNwYWNpbmciIHRleHRMZW5ndGg9Ijg0IiB4PSIzMDUuNzUiIHk9IjMxNC4yMzQ0Ij5zY29yZTogRmxvYXQ8L3RleHQ+PGVsbGlwc2UgY3g9IjI5Ni43NSIgY3k9IjMyNC45NzY2IiBmaWxsPSJub25lIiByeD0iMyIgcnk9IjMiIHN0eWxlPSJzdHJva2U6IzAzODA0ODtzdHJva2Utd2lkdGg6MS4wOyIvPjx0ZXh0IGZpbGw9IiMwMDAwMDAiIGZvbnQtZmFtaWx5PSJzYW5zLXNlcmlmIiBmb250LXNpemU9IjE0IiBsZW5ndGhBZGp1c3Q9InNwYWNpbmciIHRleHRMZW5ndGg9IjE5NyIgeD0iMzA1Ljc1IiB5PSIzMjkuMjE4OCI+Y29ycmVjdEFuc3dlcnM6IExpc3QmbHQ7U3RyaW5nJmd0OzwvdGV4dD48bGluZSBzdHlsZT0ic3Ryb2tlOiMxODE4MTg7c3Ryb2tlLXdpZHRoOjAuNTsiIHgxPSIyODYuNzUiIHgyPSI2NTcuNzUiIHkxPSIzMzQuOTY4OCIgeTI9IjMzNC45Njg4Ii8+PGVsbGlwc2UgY3g9IjI5Ni43NSIgY3k9IjM0Ny45NjA5IiBmaWxsPSIjODRCRTg0IiByeD0iMyIgcnk9IjMiIHN0eWxlPSJzdHJva2U6IzAzODA0ODtzdHJva2Utd2lkdGg6MS4wOyIvPjx0ZXh0IGZpbGw9IiMwMDAwMDAiIGZvbnQtZmFtaWx5PSJzYW5zLXNlcmlmIiBmb250LXNpemU9IjE0IiBsZW5ndGhBZGp1c3Q9InNwYWNpbmciIHRleHRMZW5ndGg9IjM0NyIgeD0iMzA1Ljc1IiB5PSIzNTIuMjAzMSI+ZXZhbHVhdGVBbnN3ZXJzKHVzZXJBbnN3ZXJzOiBMaXN0Jmx0O1N0cmluZyZndDspOiBGbG9hdDwvdGV4dD48L2c+PCEtLWNsYXNzIFF1ZXN0aW9uLS0+PGcgaWQ9ImVsZW1fUXVlc3Rpb24iPjxyZWN0IGNvZGVMaW5lPSI0MCIgZmlsbD0iI0YxRjFGMSIgaGVpZ2h0PSI3Ny45Njg4IiBpZD0iUXVlc3Rpb24iIHJ4PSIyLjUiIHJ5PSIyLjUiIHN0eWxlPSJzdHJva2U6IzE4MTgxODtzdHJva2Utd2lkdGg6MC41OyIgd2lkdGg9IjE2NiIgeD0iNzY4LjI1IiB5PSI3ODUiLz48ZWxsaXBzZSBjeD0iODE5IiBjeT0iODAxIiBmaWxsPSIjQUREMUIyIiByeD0iMTEiIHJ5PSIxMSIgc3R5bGU9InN0cm9rZTojMTgxODE4O3N0cm9rZS13aWR0aDoxLjA7Ii8+PHBhdGggZD0iTTgxNi42MjUsODA1LjI1IEw4MTYuNjI1LDgwNyBMODIxLjU2MjUsODA3IEw4MjEuNTYyNSw4MDUuMjUgTDgxNi42MjUsODA1LjI1IFogTTgxNy4zMTI1LDgwNS45Mzc1IFE4MTcuMzEyNSw4MDUuOTM3NSA4MTcuMzEyNSw3OTYuNzUgTDgxNS41NjI1LDc5Ni43NSBRODE1LjU2MjUsNzk2Ljc1IDgxNS41NjI1LDgwNS45Mzc1IEw4MTcuMzEyNSw4MDUuOTM3NSBaIE04MjAuODc1LDgwNS45Mzc1IEw4MjIuNjI1LDgwNS45Mzc1IFE4MjIuNjI1LDgwNS45Mzc1IDgyMi42MjUsODAzLjEyNSBMODIwLjg3NSw4MDMuMTI1IFE4MjAuODc1LDgwMy4xMjUgODIwLjg3NSw4MDUuOTM3NSBaIE04MjAuODc1LDc5Ni43NSBRODIwLjg3NSw3OTYuNzUgODIwLjg3NSw3OTkuNTYyNSBMODIyLjYyNSw3OTkuNTYyNSBRODIyLjYyNSw3OTkuNTYyNSA4MjIuNjI1LDc5Ni43NSBMODIwLjg3NSw3OTYuNzUgWiBNODE2LjYyNSw3OTcuNDM3NSBMODIxLjU2MjUsNzk3LjQzNzUgTDgyMS41NjI1LDc5NS42ODc1IEw4MTYuNjI1LDc5NS42ODc1IEw4MTYuNjI1LDc5Ny40Mzc1IFogIiBmaWxsPSIjMDAwMDAwIi8+PHRleHQgZmlsbD0iIzAwMDAwMCIgZm9udC1mYW1pbHk9InNhbnMtc2VyaWYiIGZvbnQtc2l6ZT0iMTQiIGxlbmd0aEFkanVzdD0ic3BhY2luZyIgdGV4dExlbmd0aD0iNTYiIHg9IjgzOS41IiB5PSI4MDYuNzQyMiI+UXVlc3Rpb248L3RleHQ+PGxpbmUgc3R5bGU9InN0cm9rZTojMTgxODE4O3N0cm9rZS13aWR0aDowLjU7IiB4MT0iNzY5LjI1IiB4Mj0iOTMzLjI1IiB5MT0iODE3IiB5Mj0iODE3Ii8+PGVsbGlwc2UgY3g9Ijc3OS4yNSIgY3k9IjgyOS45OTIyIiBmaWxsPSJub25lIiByeD0iMyIgcnk9IjMiIHN0eWxlPSJzdHJva2U6IzAzODA0ODtzdHJva2Utd2lkdGg6MS4wOyIvPjx0ZXh0IGZpbGw9IiMwMDAwMDAiIGZvbnQtZmFtaWx5PSJzYW5zLXNlcmlmIiBmb250LXNpemU9IjE0IiBsZW5ndGhBZGp1c3Q9InNwYWNpbmciIHRleHRMZW5ndGg9IjE0MCIgeD0iNzg4LjI1IiB5PSI4MzQuMjM0NCI+cXVlc3Rpb25UZXh0OiBTdHJpbmc8L3RleHQ+PGVsbGlwc2UgY3g9Ijc3OS4yNSIgY3k9Ijg0NC45NzY2IiBmaWxsPSJub25lIiByeD0iMyIgcnk9IjMiIHN0eWxlPSJzdHJva2U6IzAzODA0ODtzdHJva2Utd2lkdGg6MS4wOyIvPjx0ZXh0IGZpbGw9IiMwMDAwMDAiIGZvbnQtZmFtaWx5PSJzYW5zLXNlcmlmIiBmb250LXNpemU9IjE0IiBsZW5ndGhBZGp1c3Q9InNwYWNpbmciIHRleHRMZW5ndGg9Ijk5IiB4PSI3ODguMjUiIHk9Ijg0OS4yMTg4Ij5hbnN3ZXI6IFN0cmluZzwvdGV4dD48bGluZSBzdHlsZT0ic3Ryb2tlOiMxODE4MTg7c3Ryb2tlLXdpZHRoOjAuNTsiIHgxPSI3NjkuMjUiIHgyPSI5MzMuMjUiIHkxPSI4NTQuOTY4OCIgeTI9Ijg1NC45Njg4Ii8+PC9nPjwhLS1jbGFzcyBNQ1EtLT48ZyBpZD0iZWxlbV9NQ1EiPjxyZWN0IGNvZGVMaW5lPSI0NSIgZmlsbD0iI0YxRjFGMSIgaGVpZ2h0PSI3Ny45Njg4IiBpZD0iTUNRIiByeD0iMi41IiByeT0iMi41IiBzdHlsZT0ic3Ryb2tlOiMxODE4MTg7c3Ryb2tlLXdpZHRoOjAuNTsiIHdpZHRoPSIxNzMiIHg9IjY0NC43NSIgeT0iOTI0Ii8+PGVsbGlwc2UgY3g9IjcxNi41IiBjeT0iOTQwIiBmaWxsPSIjQUREMUIyIiByeD0iMTEiIHJ5PSIxMSIgc3R5bGU9InN0cm9rZTojMTgxODE4O3N0cm9rZS13aWR0aDoxLjA7Ii8+PHBhdGggZD0iTTcxNC4xMjUsOTQ0LjI1IEw3MTQuMTI1LDk0NiBMNzE5LjA2MjUsOTQ2IEw3MTkuMDYyNSw5NDQuMjUgTDcxNC4xMjUsOTQ0LjI1IFogTTcxNC44MTI1LDk0NC45Mzc1IFE3MTQuODEyNSw5NDQuOTM3NSA3MTQuODEyNSw5MzUuNzUgTDcxMy4wNjI1LDkzNS43NSBRNzEzLjA2MjUsOTM1Ljc1IDcxMy4wNjI1LDk0NC45Mzc1IEw3MTQuODEyNSw5NDQuOTM3NSBaIE03MTguMzc1LDk0NC45Mzc1IEw3MjAuMTI1LDk0NC45Mzc1IFE3MjAuMTI1LDk0NC45Mzc1IDcyMC4xMjUsOTQyLjEyNSBMNzE4LjM3NSw5NDIuMTI1IFE3MTguMzc1LDk0Mi4xMjUgNzE4LjM3NSw5NDQuOTM3NSBaIE03MTguMzc1LDkzNS43NSBRNzE4LjM3NSw5MzUuNzUgNzE4LjM3NSw5MzguNTYyNSBMNzIwLjEyNSw5MzguNTYyNSBRNzIwLjEyNSw5MzguNTYyNSA3MjAuMTI1LDkzNS43NSBMNzE4LjM3NSw5MzUuNzUgWiBNNzE0LjEyNSw5MzYuNDM3NSBMNzE5LjA2MjUsOTM2LjQzNzUgTDcxOS4wNjI1LDkzNC42ODc1IEw3MTQuMTI1LDkzNC42ODc1IEw3MTQuMTI1LDkzNi40Mzc1IFogIiBmaWxsPSIjMDAwMDAwIi8+PHRleHQgZmlsbD0iIzAwMDAwMCIgZm9udC1mYW1pbHk9InNhbnMtc2VyaWYiIGZvbnQtc2l6ZT0iMTQiIGxlbmd0aEFkanVzdD0ic3BhY2luZyIgdGV4dExlbmd0aD0iMjEiIHg9IjczNyIgeT0iOTQ1Ljc0MjIiPk1DUTwvdGV4dD48bGluZSBzdHlsZT0ic3Ryb2tlOiMxODE4MTg7c3Ryb2tlLXdpZHRoOjAuNTsiIHgxPSI2NDUuNzUiIHgyPSI4MTYuNzUiIHkxPSI5NTYiIHkyPSI5NTYiLz48ZWxsaXBzZSBjeD0iNjU1Ljc1IiBjeT0iOTY4Ljk5MjIiIGZpbGw9Im5vbmUiIHJ4PSIzIiByeT0iMyIgc3R5bGU9InN0cm9rZTojMDM4MDQ4O3N0cm9rZS13aWR0aDoxLjA7Ii8+PHRleHQgZmlsbD0iIzAwMDAwMCIgZm9udC1mYW1pbHk9InNhbnMtc2VyaWYiIGZvbnQtc2l6ZT0iMTQiIGxlbmd0aEFkanVzdD0ic3BhY2luZyIgdGV4dExlbmd0aD0iMTQ3IiB4PSI2NjQuNzUiIHk9Ijk3My4yMzQ0Ij5vcHRpb25zOiBMaXN0Jmx0O1N0cmluZyZndDs8L3RleHQ+PGVsbGlwc2UgY3g9IjY1NS43NSIgY3k9Ijk4My45NzY2IiBmaWxsPSJub25lIiByeD0iMyIgcnk9IjMiIHN0eWxlPSJzdHJva2U6IzAzODA0ODtzdHJva2Utd2lkdGg6MS4wOyIvPjx0ZXh0IGZpbGw9IiMwMDAwMDAiIGZvbnQtZmFtaWx5PSJzYW5zLXNlcmlmIiBmb250LXNpemU9IjE0IiBsZW5ndGhBZGp1c3Q9InNwYWNpbmciIHRleHRMZW5ndGg9IjE0NyIgeD0iNjY0Ljc1IiB5PSI5ODguMjE4OCI+Y29ycmVjdE9wdGlvbjogU3RyaW5nPC90ZXh0PjxsaW5lIHN0eWxlPSJzdHJva2U6IzE4MTgxODtzdHJva2Utd2lkdGg6MC41OyIgeDE9IjY0NS43NSIgeDI9IjgxNi43NSIgeTE9Ijk5My45Njg4IiB5Mj0iOTkzLjk2ODgiLz48L2c+PCEtLWNsYXNzIFNob3J0QW5zd2VyLS0+PGcgaWQ9ImVsZW1fU2hvcnRBbnN3ZXIiPjxyZWN0IGNvZGVMaW5lPSI1MCIgZmlsbD0iI0YxRjFGMSIgaGVpZ2h0PSI2Mi45ODQ0IiBpZD0iU2hvcnRBbnN3ZXIiIHJ4PSIyLjUiIHJ5PSIyLjUiIHN0eWxlPSJzdHJva2U6IzE4MTgxODtzdHJva2Utd2lkdGg6MC41OyIgd2lkdGg9IjE3NCIgeD0iODg0LjI1IiB5PSI5MzEuNSIvPjxlbGxpcHNlIGN4PSI5MjguMDUiIGN5PSI5NDcuNSIgZmlsbD0iI0FERDFCMiIgcng9IjExIiByeT0iMTEiIHN0eWxlPSJzdHJva2U6IzE4MTgxODtzdHJva2Utd2lkdGg6MS4wOyIvPjxwYXRoIGQ9Ik05MjUuNjc1LDk1MS43NSBMOTI1LjY3NSw5NTMuNSBMOTMwLjYxMjUsOTUzLjUgTDkzMC42MTI1LDk1MS43NSBMOTI1LjY3NSw5NTEuNzUgWiBNOTI2LjM2MjUsOTUyLjQzNzUgUTkyNi4zNjI1LDk1Mi40Mzc1IDkyNi4zNjI1LDk0My4yNSBMOTI0LjYxMjUsOTQzLjI1IFE5MjQuNjEyNSw5NDMuMjUgOTI0LjYxMjUsOTUyLjQzNzUgTDkyNi4zNjI1LDk1Mi40Mzc1IFogTTkyOS45MjUsOTUyLjQzNzUgTDkzMS42NzUsOTUyLjQzNzUgUTkzMS42NzUsOTUyLjQzNzUgOTMxLjY3NSw5NDkuNjI1IEw5MjkuOTI1LDk0OS42MjUgUTkyOS45MjUsOTQ5LjYyNSA5MjkuOTI1LDk1Mi40Mzc1IFogTTkyOS45MjUsOTQzLjI1IFE5MjkuOTI1LDk0My4yNSA5MjkuOTI1LDk0Ni4wNjI1IEw5MzEuNjc1LDk0Ni4wNjI1IFE5MzEuNjc1LDk0Ni4wNjI1IDkzMS42NzUsOTQzLjI1IEw5MjkuOTI1LDk0My4yNSBaIE05MjUuNjc1LDk0My45Mzc1IEw5MzAuNjEyNSw5NDMuOTM3NSBMOTMwLjYxMjUsOTQyLjE4NzUgTDkyNS42NzUsOTQyLjE4NzUgTDkyNS42NzUsOTQzLjkzNzUgWiAiIGZpbGw9IiMwMDAwMDAiLz48dGV4dCBmaWxsPSIjMDAwMDAwIiBmb250LWZhbWlseT0ic2Fucy1zZXJpZiIgZm9udC1zaXplPSIxNCIgbGVuZ3RoQWRqdXN0PSJzcGFjaW5nIiB0ZXh0TGVuZ3RoPSI3OCIgeD0iOTQ4LjQ1IiB5PSI5NTMuMjQyMiI+U2hvcnRBbnN3ZXI8L3RleHQ+PGxpbmUgc3R5bGU9InN0cm9rZTojMTgxODE4O3N0cm9rZS13aWR0aDowLjU7IiB4MT0iODg1LjI1IiB4Mj0iMTA1Ny4yNSIgeTE9Ijk2My41IiB5Mj0iOTYzLjUiLz48ZWxsaXBzZSBjeD0iODk1LjI1IiBjeT0iOTc2LjQ5MjIiIGZpbGw9Im5vbmUiIHJ4PSIzIiByeT0iMyIgc3R5bGU9InN0cm9rZTojMDM4MDQ4O3N0cm9rZS13aWR0aDoxLjA7Ii8+PHRleHQgZmlsbD0iIzAwMDAwMCIgZm9udC1mYW1pbHk9InNhbnMtc2VyaWYiIGZvbnQtc2l6ZT0iMTQiIGxlbmd0aEFkanVzdD0ic3BhY2luZyIgdGV4dExlbmd0aD0iMTQ4IiB4PSI5MDQuMjUiIHk9Ijk4MC43MzQ0Ij5jb3JyZWN0QW5zd2VyOiBTdHJpbmc8L3RleHQ+PGxpbmUgc3R5bGU9InN0cm9rZTojMTgxODE4O3N0cm9rZS13aWR0aDowLjU7IiB4MT0iODg1LjI1IiB4Mj0iMTA1Ny4yNSIgeTE9Ijk4Ni40ODQ0IiB5Mj0iOTg2LjQ4NDQiLz48L2c+PCEtLWNsYXNzIEFQSS0tPjxnIGlkPSJlbGVtX0FQSSI+PHJlY3QgY29kZUxpbmU9IjU0IiBmaWxsPSIjRjFGMUYxIiBoZWlnaHQ9IjkyLjk1MzEiIGlkPSJBUEkiIHJ4PSIyLjUiIHJ5PSIyLjUiIHN0eWxlPSJzdHJva2U6IzE4MTgxODtzdHJva2Utd2lkdGg6MC41OyIgd2lkdGg9IjM0MyIgeD0iODkwLjc1IiB5PSI1MiIvPjxlbGxpcHNlIGN4PSIxMDQ3LjUiIGN5PSI2OCIgZmlsbD0iI0FERDFCMiIgcng9IjExIiByeT0iMTEiIHN0eWxlPSJzdHJva2U6IzE4MTgxODtzdHJva2Utd2lkdGg6MS4wOyIvPjxwYXRoIGQ9Ik0xMDQ1LjEyNSw3Mi4yNSBMMTA0NS4xMjUsNzQgTDEwNTAuMDYyNSw3NCBMMTA1MC4wNjI1LDcyLjI1IEwxMDQ1LjEyNSw3Mi4yNSBaIE0xMDQ1LjgxMjUsNzIuOTM3NSBRMTA0NS44MTI1LDcyLjkzNzUgMTA0NS44MTI1LDYzLjc1IEwxMDQ0LjA2MjUsNjMuNzUgUTEwNDQuMDYyNSw2My43NSAxMDQ0LjA2MjUsNzIuOTM3NSBMMTA0NS44MTI1LDcyLjkzNzUgWiBNMTA0OS4zNzUsNzIuOTM3NSBMMTA1MS4xMjUsNzIuOTM3NSBRMTA1MS4xMjUsNzIuOTM3NSAxMDUxLjEyNSw3MC4xMjUgTDEwNDkuMzc1LDcwLjEyNSBRMTA0OS4zNzUsNzAuMTI1IDEwNDkuMzc1LDcyLjkzNzUgWiBNMTA0OS4zNzUsNjMuNzUgUTEwNDkuMzc1LDYzLjc1IDEwNDkuMzc1LDY2LjU2MjUgTDEwNTEuMTI1LDY2LjU2MjUgUTEwNTEuMTI1LDY2LjU2MjUgMTA1MS4xMjUsNjMuNzUgTDEwNDkuMzc1LDYzLjc1IFogTTEwNDUuMTI1LDY0LjQzNzUgTDEwNTAuMDYyNSw2NC40Mzc1IEwxMDUwLjA2MjUsNjIuNjg3NSBMMTA0NS4xMjUsNjIuNjg3NSBMMTA0NS4xMjUsNjQuNDM3NSBaICIgZmlsbD0iIzAwMDAwMCIvPjx0ZXh0IGZpbGw9IiMwMDAwMDAiIGZvbnQtZmFtaWx5PSJzYW5zLXNlcmlmIiBmb250LXNpemU9IjE0IiBsZW5ndGhBZGp1c3Q9InNwYWNpbmciIHRleHRMZW5ndGg9IjIxIiB4PSIxMDY4IiB5PSI3My43NDIyIj5BUEk8L3RleHQ+PGxpbmUgc3R5bGU9InN0cm9rZTojMTgxODE4O3N0cm9rZS13aWR0aDowLjU7IiB4MT0iODkxLjc1IiB4Mj0iMTIzMi43NSIgeTE9Ijg0IiB5Mj0iODQiLz48bGluZSBzdHlsZT0ic3Ryb2tlOiMxODE4MTg7c3Ryb2tlLXdpZHRoOjAuNTsiIHgxPSI4OTEuNzUiIHgyPSIxMjMyLjc1IiB5MT0iOTIiIHkyPSI5MiIvPjxlbGxpcHNlIGN4PSI5MDEuNzUiIGN5PSIxMDQuOTkyMiIgZmlsbD0iIzg0QkU4NCIgcng9IjMiIHJ5PSIzIiBzdHlsZT0ic3Ryb2tlOiMwMzgwNDg7c3Ryb2tlLXdpZHRoOjEuMDsiLz48dGV4dCBmaWxsPSIjMDAwMDAwIiBmb250LWZhbWlseT0ic2Fucy1zZXJpZiIgZm9udC1zaXplPSIxNCIgbGVuZ3RoQWRqdXN0PSJzcGFjaW5nIiB0ZXh0TGVuZ3RoPSIyODkiIHg9IjkxMC43NSIgeT0iMTA5LjIzNDQiPmZldGNoVHJhbnNjcmlwdCh2aWRlb1VSTDogU3RyaW5nKTogU3RyaW5nPC90ZXh0PjxlbGxpcHNlIGN4PSI5MDEuNzUiIGN5PSIxMTkuOTc2NiIgZmlsbD0iIzg0QkU4NCIgcng9IjMiIHJ5PSIzIiBzdHlsZT0ic3Ryb2tlOiMwMzgwNDg7c3Ryb2tlLXdpZHRoOjEuMDsiLz48dGV4dCBmaWxsPSIjMDAwMDAwIiBmb250LWZhbWlseT0ic2Fucy1zZXJpZiIgZm9udC1zaXplPSIxNCIgbGVuZ3RoQWRqdXN0PSJzcGFjaW5nIiB0ZXh0TGVuZ3RoPSIyODQiIHg9IjkxMC43NSIgeT0iMTI0LjIxODgiPmZldGNoU3VtbWFyeSh0cmFuc2NyaXB0OiBTdHJpbmcpOiBTdHJpbmc8L3RleHQ+PGVsbGlwc2UgY3g9IjkwMS43NSIgY3k9IjEzNC45NjA5IiBmaWxsPSIjODRCRTg0IiByeD0iMyIgcnk9IjMiIHN0eWxlPSJzdHJva2U6IzAzODA0ODtzdHJva2Utd2lkdGg6MS4wOyIvPjx0ZXh0IGZpbGw9IiMwMDAwMDAiIGZvbnQtZmFtaWx5PSJzYW5zLXNlcmlmIiBmb250LXNpemU9IjE0IiBsZW5ndGhBZGp1c3Q9InNwYWNpbmciIHRleHRMZW5ndGg9IjMxNyIgeD0iOTEwLjc1IiB5PSIxMzkuMjAzMSI+ZmV0Y2hRdWl6KHRyYW5zY3JpcHQ6IFN0cmluZyk6IExpc3QmbHQ7UXVlc3Rpb24mZ3Q7PC90ZXh0PjwvZz48IS0tbGluayBVc2VyIHRvIFlvdVR1YmVQcm9jZXNzb3ItLT48ZyBpZD0ibGlua19Vc2VyX1lvdVR1YmVQcm9jZXNzb3IiPjxwYXRoIGNvZGVMaW5lPSI2MSIgZD0iTTM1Ny45OCwxMzIuNTggQzQ1Ni43OCwxNjguMjIgNjA4Ljk4NTksMjIzLjEyNDMgNzE5LjQ0NTksMjYyLjk2NDMgIiBmaWxsPSJub25lIiBpZD0iVXNlci10by1Zb3VUdWJlUHJvY2Vzc29yIiBzdHlsZT0ic3Ryb2tlOiMxODE4MTg7c3Ryb2tlLXdpZHRoOjEuMDsiLz48cG9seWdvbiBmaWxsPSIjMTgxODE4IiBwb2ludHM9IjcyNS4wOSwyNjUsNzE3Ljk4MSwyNTguMTgzNyw3MjAuMzg2NiwyNjMuMzAzNiw3MTUuMjY2NywyNjUuNzA5Miw3MjUuMDksMjY1IiBzdHlsZT0ic3Ryb2tlOiMxODE4MTg7c3Ryb2tlLXdpZHRoOjEuMDsiLz48dGV4dCBmaWxsPSIjMDAwMDAwIiBmb250LWZhbWlseT0ic2Fucy1zZXJpZiIgZm9udC1zaXplPSIxMyIgbGVuZ3RoQWRqdXN0PSJzcGFjaW5nIiB0ZXh0TGVuZ3RoPSIxMDkiIHg9IjYyOS4yNSIgeT0iMjMzLjI4OTEiPmlucHV0cyB2aWRlbyBVUkw8L3RleHQ+PC9nPjwhLS1saW5rIFVzZXIgdG8gVHJhbnNjcmlwdEFuYWx5emVyLS0+PGcgaWQ9ImxpbmtfVXNlcl9UcmFuc2NyaXB0QW5hbHl6ZXIiPjxwYXRoIGNvZGVMaW5lPSI2MiIgZD0iTTE3NC42OCwxNTguMTYgQzEwMi4wNSwyMTEuODUgMjEuMjksMjkyLjY1IDc3LjI1LDM1OCBDMTUzLjkzLDQ0Ny41NCA0NzUuNzUyNSw0NzAuODk3NCA2NzkuMzgyNSw0NzYuNzU3NCAiIGZpbGw9Im5vbmUiIGlkPSJVc2VyLXRvLVRyYW5zY3JpcHRBbmFseXplciIgc3R5bGU9InN0cm9rZTojMTgxODE4O3N0cm9rZS13aWR0aDoxLjA7Ii8+PHBvbHlnb24gZmlsbD0iIzE4MTgxOCIgcG9pbnRzPSI2ODUuMzgsNDc2LjkzLDY3Ni40OTg4LDQ3Mi42NzI4LDY4MC4zODIxLDQ3Ni43ODYyLDY3Ni4yNjg3LDQ4MC42Njk1LDY4NS4zOCw0NzYuOTMiIHN0eWxlPSJzdHJva2U6IzE4MTgxODtzdHJva2Utd2lkdGg6MS4wOyIvPjx0ZXh0IGZpbGw9IiMwMDAwMDAiIGZvbnQtZmFtaWx5PSJzYW5zLXNlcmlmIiBmb250LXNpemU9IjEzIiBsZW5ndGhBZGp1c3Q9InNwYWNpbmciIHRleHRMZW5ndGg9IjE4OSIgeD0iNzguMjUiIHk9IjMxNy4yODkxIj52aWV3cyB0cmFuc2NyaXB0IGFuZCBzdW1tYXJ5PC90ZXh0PjwvZz48IS0tbGluayBVc2VyIHRvIFF1aXpHZW5lcmF0b3ItLT48ZyBpZD0ibGlua19Vc2VyX1F1aXpHZW5lcmF0b3IiPjxwYXRoIGNvZGVMaW5lPSI2MyIgZD0iTTE3NC43LDE0MC4yIEMxMjYuNDMsMTY3LjUxIDcyLjg1LDIwOC44MyA1MS4yNSwyNjUgQzI5LjE5LDMyMi4zNyA2LDM1My4zNiA0Mi4yNSw0MDMgQzExMS42NSw0OTguMDQgNDAzLjE2NTcsNTczLjgzODQgNjE3LjI0NTcsNjE4LjM1ODQgIiBmaWxsPSJub25lIiBpZD0iVXNlci10by1RdWl6R2VuZXJhdG9yIiBzdHlsZT0ic3Ryb2tlOiMxODE4MTg7c3Ryb2tlLXdpZHRoOjEuMDsiLz48cG9seWdvbiBmaWxsPSIjMTgxODE4IiBwb2ludHM9IjYyMy4xMiw2MTkuNTgsNjE1LjEyMjksNjEzLjgzMTQsNjE4LjIyNDcsNjE4LjU2Miw2MTMuNDk0MSw2MjEuNjYzOCw2MjMuMTIsNjE5LjU4IiBzdHlsZT0ic3Ryb2tlOiMxODE4MTg7c3Ryb2tlLXdpZHRoOjEuMDsiLz48dGV4dCBmaWxsPSIjMDAwMDAwIiBmb250LWZhbWlseT0ic2Fucy1zZXJpZiIgZm9udC1zaXplPSIxMyIgbGVuZ3RoQWRqdXN0PSJzcGFjaW5nIiB0ZXh0TGVuZ3RoPSI2OCIgeD0iNDMuMjUiIHk9IjQwMS4yODkxIj50YWtlcyBxdWl6PC90ZXh0PjwvZz48IS0tbGluayBVc2VyIHRvIFNjb3JlRXZhbHVhdG9yLS0+PGcgaWQ9ImxpbmtfVXNlcl9TY29yZUV2YWx1YXRvciI+PHBhdGggY29kZUxpbmU9IjY0IiBkPSJNMzU0LjgxLDE5MC4yMSBDMzgwLDIxNi4wMSA0MDIuMTc4NywyMzguNzI2NiA0MjMuNTI4NywyNjAuNTk2NiAiIGZpbGw9Im5vbmUiIGlkPSJVc2VyLXRvLVNjb3JlRXZhbHVhdG9yIiBzdHlsZT0ic3Ryb2tlOiMxODE4MTg7c3Ryb2tlLXdpZHRoOjEuMDsiLz48cG9seWdvbiBmaWxsPSIjMTgxODE4IiBwb2ludHM9IjQyNy43MiwyNjQuODksNDI0LjI5NTMsMjU1LjY1NTcsNDI0LjIyNzMsMjYxLjMxMjIsNDE4LjU3MDgsMjYxLjI0NDEsNDI3LjcyLDI2NC44OSIgc3R5bGU9InN0cm9rZTojMTgxODE4O3N0cm9rZS13aWR0aDoxLjA7Ii8+PHRleHQgZmlsbD0iIzAwMDAwMCIgZm9udC1mYW1pbHk9InNhbnMtc2VyaWYiIGZvbnQtc2l6ZT0iMTMiIGxlbmd0aEFkanVzdD0ic3BhY2luZyIgdGV4dExlbmd0aD0iNjkiIHg9IjM5NS4yNSIgeT0iMjMzLjI4OTEiPmdldHMgc2NvcmU8L3RleHQ+PC9nPjwhLS1saW5rIFF1aXpHZW5lcmF0b3IgdG8gUXVlc3Rpb24tLT48ZyBpZD0ibGlua19RdWl6R2VuZXJhdG9yX1F1ZXN0aW9uIj48cGF0aCBjb2RlTGluZT0iNjYiIGQ9Ik04NTEuMjUsNzI0LjI2IEM4NTEuMjUsNzQ0LjUgODUxLjI1LDc2MC40OSA4NTEuMjUsNzc4LjU2ICIgZmlsbD0ibm9uZSIgaWQ9IlF1aXpHZW5lcmF0b3ItdG8tUXVlc3Rpb24iIHN0eWxlPSJzdHJva2U6IzE4MTgxODtzdHJva2Utd2lkdGg6MS4wOyIvPjxwb2x5Z29uIGZpbGw9IiMxODE4MTgiIHBvaW50cz0iODUxLjI1LDc4NC41Niw4NTUuMjUsNzc1LjU2LDg1MS4yNSw3NzkuNTYsODQ3LjI1LDc3NS41Niw4NTEuMjUsNzg0LjU2IiBzdHlsZT0ic3Ryb2tlOiMxODE4MTg7c3Ryb2tlLXdpZHRoOjEuMDsiLz48L2c+PCEtLWxpbmsgUXVpekdlbmVyYXRvciB0byBNQ1EtLT48ZyBpZD0ibGlua19RdWl6R2VuZXJhdG9yX01DUSI+PHBhdGggY29kZUxpbmU9IjY3IiBkPSJNNzg5LjkxLDcyNC4xNCBDNzc0Ljg3LDc0Mi4zMSA3NjAuNDcsNzYzLjI0IDc1MS4yNSw3ODUgQzczMi4yLDgyOS45OSA3MjguOTc4Myw4ODAuODcwMyA3MjkuMzU4Myw5MTcuODIwMyAiIGZpbGw9Im5vbmUiIGlkPSJRdWl6R2VuZXJhdG9yLXRvLU1DUSIgc3R5bGU9InN0cm9rZTojMTgxODE4O3N0cm9rZS13aWR0aDoxLjA7Ii8+PHBvbHlnb24gZmlsbD0iIzE4MTgxOCIgcG9pbnRzPSI3MjkuNDIsOTIzLjgyLDczMy4zMjcyLDkxNC43NzkzLDcyOS4zNjg2LDkxOC44MjAzLDcyNS4zMjc3LDkxNC44NjE2LDcyOS40Miw5MjMuODIiIHN0eWxlPSJzdHJva2U6IzE4MTgxODtzdHJva2Utd2lkdGg6MS4wOyIvPjwvZz48IS0tbGluayBRdWl6R2VuZXJhdG9yIHRvIFNob3J0QW5zd2VyLS0+PGcgaWQ9ImxpbmtfUXVpekdlbmVyYXRvcl9TaG9ydEFuc3dlciI+PHBhdGggY29kZUxpbmU9IjY4IiBkPSJNOTEzLjI5LDcyNC4wMiBDOTI4LjQ4LDc0Mi4xOSA5NDMuMDEsNzYzLjE1IDk1Mi4yNSw3ODUgQzk3Mi42LDgzMy4xIDk3NC41NDk1LDg4OC44MzMgOTczLjM5OTUsOTI1LjIzMyAiIGZpbGw9Im5vbmUiIGlkPSJRdWl6R2VuZXJhdG9yLXRvLVNob3J0QW5zd2VyIiBzdHlsZT0ic3Ryb2tlOiMxODE4MTg7c3Ryb2tlLXdpZHRoOjEuMDsiLz48cG9seWdvbiBmaWxsPSIjMTgxODE4IiBwb2ludHM9Ijk3My4yMSw5MzEuMjMsOTc3LjQ5MjIsOTIyLjM2MDgsOTczLjM2NzksOTI2LjIzMjUsOTY5LjQ5NjIsOTIyLjEwODIsOTczLjIxLDkzMS4yMyIgc3R5bGU9InN0cm9rZTojMTgxODE4O3N0cm9rZS13aWR0aDoxLjA7Ii8+PC9nPjwhLS1yZXZlcnNlIGxpbmsgUXVlc3Rpb24gdG8gTUNRLS0+PGcgaWQ9ImxpbmtfUXVlc3Rpb25fTUNRIj48cGF0aCBjb2RlTGluZT0iNzAiIGQ9Ik04MDUuOTY0NCw4NzYuNzA0MiBDNzg5LjQ2NDQsODk1LjU1NDIgNzgxLjQ1LDkwNC42OSA3NjQuOTEsOTIzLjU3ICIgZmlsbD0ibm9uZSIgaWQ9IlF1ZXN0aW9uLWJhY2t0by1NQ1EiIHN0eWxlPSJzdHJva2U6IzE4MTgxODtzdHJva2Utd2lkdGg6MS4wOyIvPjxwb2x5Z29uIGZpbGw9Im5vbmUiIHBvaW50cz0iODE3LjgyLDg2My4xNiw4MDEuNDQ5Nyw4NzIuNzUyMyw4MTAuNDc5MSw4ODAuNjU2LDgxNy44Miw4NjMuMTYiIHN0eWxlPSJzdHJva2U6IzE4MTgxODtzdHJva2Utd2lkdGg6MS4wOyIvPjwvZz48IS0tcmV2ZXJzZSBsaW5rIFF1ZXN0aW9uIHRvIFNob3J0QW5zd2VyLS0+PGcgaWQ9ImxpbmtfUXVlc3Rpb25fU2hvcnRBbnN3ZXIiPjxwYXRoIGNvZGVMaW5lPSI3MSIgZD0iTTg5Ni41Mzc1LDg3Ni43MDI1IEM5MTUuMzk3NSw4OTguMjQyNSA5MjYuOCw5MTEuMjUgOTQ0LjQ1LDkzMS40ICIgZmlsbD0ibm9uZSIgaWQ9IlF1ZXN0aW9uLWJhY2t0by1TaG9ydEFuc3dlciIgc3R5bGU9InN0cm9rZTojMTgxODE4O3N0cm9rZS13aWR0aDoxLjA7Ii8+PHBvbHlnb24gZmlsbD0ibm9uZSIgcG9pbnRzPSI4ODQuNjgsODYzLjE2LDg5Mi4wMjM0LDg4MC42NTUsOTAxLjA1MTcsODcyLjc1LDg4NC42OCw4NjMuMTYiIHN0eWxlPSJzdHJva2U6IzE4MTgxODtzdHJva2Utd2lkdGg6MS4wOyIvPjwvZz48IS0tbGluayBZb3VUdWJlUHJvY2Vzc29yIHRvIFRyYW5zY3JpcHRBbmFseXplci0tPjxnIGlkPSJsaW5rX1lvdVR1YmVQcm9jZXNzb3JfVHJhbnNjcmlwdEFuYWx5emVyIj48cGF0aCBjb2RlTGluZT0iNzMiIGQ9Ik04NTEuMjUsMzU4LjMgQzg1MS4yNSwzODEuNTIgODUxLjI1LDQwMy42NSA4NTEuMjUsNDI2Ljg1ICIgZmlsbD0ibm9uZSIgaWQ9IllvdVR1YmVQcm9jZXNzb3ItdG8tVHJhbnNjcmlwdEFuYWx5emVyIiBzdHlsZT0ic3Ryb2tlOiMxODE4MTg7c3Ryb2tlLXdpZHRoOjEuMDsiLz48cG9seWdvbiBmaWxsPSIjMTgxODE4IiBwb2ludHM9Ijg1MS4yNSw0MzIuODUsODU1LjI1LDQyMy44NSw4NTEuMjUsNDI3Ljg1LDg0Ny4yNSw0MjMuODUsODUxLjI1LDQzMi44NSIgc3R5bGU9InN0cm9rZTojMTgxODE4O3N0cm9rZS13aWR0aDoxLjA7Ii8+PHRleHQgZmlsbD0iIzAwMDAwMCIgZm9udC1mYW1pbHk9InNhbnMtc2VyaWYiIGZvbnQtc2l6ZT0iMTMiIGxlbmd0aEFkanVzdD0ic3BhY2luZyIgdGV4dExlbmd0aD0iMTA5IiB4PSI4NTIuMjUiIHk9IjQwMS4yODkxIj5zZW5kcyB0cmFuc2NyaXB0PC90ZXh0PjwvZz48IS0tbGluayBUcmFuc2NyaXB0QW5hbHl6ZXIgdG8gUXVpekdlbmVyYXRvci0tPjxnIGlkPSJsaW5rX1RyYW5zY3JpcHRBbmFseXplcl9RdWl6R2VuZXJhdG9yIj48cGF0aCBjb2RlTGluZT0iNzQiIGQ9Ik04NTEuMjUsNTI2LjE3IEM4NTEuMjUsNTQ4Ljc5IDg1MS4yNSw1NzAuNDEgODUxLjI1LDU5NC43OSAiIGZpbGw9Im5vbmUiIGlkPSJUcmFuc2NyaXB0QW5hbHl6ZXItdG8tUXVpekdlbmVyYXRvciIgc3R5bGU9InN0cm9rZTojMTgxODE4O3N0cm9rZS13aWR0aDoxLjA7Ii8+PHBvbHlnb24gZmlsbD0iIzE4MTgxOCIgcG9pbnRzPSI4NTEuMjUsNjAwLjc5LDg1NS4yNSw1OTEuNzksODUxLjI1LDU5NS43OSw4NDcuMjUsNTkxLjc5LDg1MS4yNSw2MDAuNzkiIHN0eWxlPSJzdHJva2U6IzE4MTgxODtzdHJva2Utd2lkdGg6MS4wOyIvPjx0ZXh0IGZpbGw9IiMwMDAwMDAiIGZvbnQtZmFtaWx5PSJzYW5zLXNlcmlmIiBmb250LXNpemU9IjEzIiBsZW5ndGhBZGp1c3Q9InNwYWNpbmciIHRleHRMZW5ndGg9Ijg5IiB4PSI4NTIuMjUiIHk9IjU2OS4yODkxIj5zZW5kcyBzdW1tYXJ5PC90ZXh0PjwvZz48IS0tbGluayBBUEkgdG8gWW91VHViZVByb2Nlc3Nvci0tPjxnIGlkPSJsaW5rX0FQSV9Zb3VUdWJlUHJvY2Vzc29yIj48cGF0aCBjb2RlTGluZT0iNzYiIGQ9Ik0xMDE2LjczLDE0NS4wMiBDOTgxLjM1LDE4MC40IDkzNi43NDI2LDIyNS4wMDc0IDkwMS4zMDI2LDI2MC40NDc0ICIgZmlsbD0ibm9uZSIgaWQ9IkFQSS10by1Zb3VUdWJlUHJvY2Vzc29yIiBzdHlsZT0ic3Ryb2tlOiMxODE4MTg7c3Ryb2tlLXdpZHRoOjEuMDsiLz48cG9seWdvbiBmaWxsPSIjMTgxODE4IiBwb2ludHM9Ijg5Ny4wNiwyNjQuNjksOTA2LjI1MjQsMjYxLjE1NDUsOTAwLjU5NTUsMjYxLjE1NDUsOTAwLjU5NTUsMjU1LjQ5NzYsODk3LjA2LDI2NC42OSIgc3R5bGU9InN0cm9rZTojMTgxODE4O3N0cm9rZS13aWR0aDoxLjA7Ii8+PC9nPjwhLS1saW5rIEFQSSB0byBUcmFuc2NyaXB0QW5hbHl6ZXItLT48ZyBpZD0ibGlua19BUElfVHJhbnNjcmlwdEFuYWx5emVyIj48cGF0aCBjb2RlTGluZT0iNzciIGQ9Ik0xMDY1LjY4LDE0NS4yMiBDMTA2Ny42NSwxOTkuNTQgMTA2NC4xNSwyOTEuMiAxMDI2LjI1LDM1OCBDMTAwOC41OSwzODkuMTIgOTg0LjI1NzEsNDEwLjc0NjggOTU0LjU0NzEsNDI5LjU4NjggIiBmaWxsPSJub25lIiBpZD0iQVBJLXRvLVRyYW5zY3JpcHRBbmFseXplciIgc3R5bGU9InN0cm9rZTojMTgxODE4O3N0cm9rZS13aWR0aDoxLjA7Ii8+PHBvbHlnb24gZmlsbD0iIzE4MTgxOCIgcG9pbnRzPSI5NDkuNDgsNDMyLjgsOTU5LjIyMjgsNDMxLjM1ODMsOTUzLjcwMjYsNDMwLjEyMjMsOTU0LjkzODUsNDI0LjYwMjIsOTQ5LjQ4LDQzMi44IiBzdHlsZT0ic3Ryb2tlOiMxODE4MTg7c3Ryb2tlLXdpZHRoOjEuMDsiLz48L2c+PCEtLWxpbmsgQVBJIHRvIFF1aXpHZW5lcmF0b3ItLT48ZyBpZD0ibGlua19BUElfUXVpekdlbmVyYXRvciI+PHBhdGggY29kZUxpbmU9Ijc4IiBkPSJNMTA3NC41MSwxNDUuMTkgQzEwNzkuODksMTY3LjU2IDEwODUuNTgsMTk0Ljk5IDEwODguMjUsMjIwIEMxMTAyLjksMzU3LjMyIDExMDguMDQsNDA5LjI3IDEwMzQuMjUsNTI2IEMxMDE1Ljc3LDU1NS4yNCA5OTMuMzgzMyw1NzYuNzc4NSA5NjUuNTUzMyw1OTcuMTI4NSAiIGZpbGw9Im5vbmUiIGlkPSJBUEktdG8tUXVpekdlbmVyYXRvciIgc3R5bGU9InN0cm9rZTojMTgxODE4O3N0cm9rZS13aWR0aDoxLjA7Ii8+PHBvbHlnb24gZmlsbD0iIzE4MTgxOCIgcG9pbnRzPSI5NjAuNzEsNjAwLjY3LDk3MC4zMzYsNTk4LjU4NjYsOTY0Ljc0NjEsNTk3LjcxODcsOTY1LjYxMzksNTkyLjEyODgsOTYwLjcxLDYwMC42NyIgc3R5bGU9InN0cm9rZTojMTgxODE4O3N0cm9rZS13aWR0aDoxLjA7Ii8+PC9nPjwhLS1TUkM9W1pMSkJSamltNEJwaEFuUS05NFJYN24wMjBxUkc1VzRJRDh3VEd1LWlsQjY5SWdKRGZQbk4tIC1fYkd3OThZSWJvNHRUZFhoQ0Z3V0JrNjFUbU5KQ1k5MldnLW02RlgwaFUydTBsVjVWMlpUMnVIc01GV1pMT21hT2hCbFJzWjB0WlRIb1dJWWczLTVQQmZYclY3NWx6LTcxeEVJX1hCRmRFbml1U2R4VUEyUWVLRi1mblBqQ3MzTEVsU0xZcHR4WGstVGk0UVl5Qm1SejV2X3dkUkJWakJ4bk5pYThZc0xMb3Zaa0tuYWRpTFdTTlNWRzlUTk04Mzh3UHltMEVMbXhlYk0zcndybFZsbG01djRrQ0d0aUtnOVo2bGxlZkNORWh4U2J0Si1vaEZCTDhjYWoxOVRub3FiVmh4aG9xb1FPd2hLVnZrLWtySXo1MUFackVSY25tOVVXUHJKOHNRS1lLVHZYZVhmZUl4VnlHYV9qMmJNeEFOeS1pUmVTb25zamNaV2doWlhsaUV0NWQxSnFURXkxYlFuT3kydnh0ZWI2SmxWNnFscmp5SUtSQWREWHFIQU9OZFlZRklNUzdRdnRyN291XzVPWHd1ZU1JS2dWdXJWc0RudHItWXRsbVB0UWxueGhkLUY0YVh4S3BuWXhXME1sY29aX204bk5reHg5T0JBU0ZqT0lQLXM0R0VCVFd4Q3U2VUVRSDZPQno0SDBDTGUyOTdOR2xCMkFkUnlObXg0LTV1NkoyNE1ncVFtUXNILUY2aFRraUE1OEhCLWlCcFFKQ3czRkhROXZNaHpramdwLUJIS1U4OG1idXFnc0ZVcThlVGQ1RlBhSzZiLXNBUHVSczVOUVRTZ0NBWVFibUkyTllfbTAwXS0tPjwvZz48L3N2Zz4=;" vertex="1" parent="WIyWlLk6GJQsqaUBKTNV-1">
            <mxGeometry x="-210" y="-60" width="1240" height="1008" as="geometry" />
          </mxCell>
        </UserObject>
      </root>
    </mxGraphModel>
  </diagram>
</mxfile>
